<svg id="Layer_1" data-name="Layer 1" xmlns="http://www.w3.org/2000/svg" viewBox="0 0 553.41 183.81"><defs><style>.cls-1{fill:#333;}.cls-2{fill:#3667a6;}.cls-3{fill:#214177;}.cls-4{fill:#bdd8f1;}</style></defs><path class="cls-1" d="M25.71,68.81H46.36V137c0,13.84-8.13,24.17-17.68,30.87L18.46,157.46c4.5-5.82,7.25-11.75,7.25-20Z"/><path class="cls-1" d="M75.91,68.81V117.7c0,11,4.06,14.5,9,14.5S94,128.68,94,117.7V68.81h20.76v48.67c0,22.63-13.51,30.65-29.87,30.65s-29.77-8-29.77-30.65V68.81Z"/><path class="cls-1" d="M127,126.48c7.15,3.52,13.63,5.5,18.9,5.5,4.83,0,7.8-2.75,7.8-7.25,0-4.18-3.19-5.6-7.14-7-7.8-2.86-24.61-5.17-24.61-25.49,0-13.07,7.58-24.71,27.9-24.71,7.14,0,14.94,2.08,21.42,4.83L168,88.81c-7-3.3-13.62-5.28-18-5.28-4.17,0-7,2.31-7,6.49,0,3.62,2.31,5.27,5.82,6.59,6.05,2.19,25.93,5.38,25.93,25.92,0,14.61-8.68,25.6-28.56,25.6-7.14,0-15.93-2.2-22.41-4.95Z"/><path class="cls-1" d="M177.07,68.81h55l-.88,15.93h-16.7v62.07H193.77V84.74H176.2Z"/><path class="cls-1" d="M237.93,68.81h20.76v78H237.93Z"/><path class="cls-1" d="M283.07,107.81l-19.44-39h23.51l7.36,20,2.3,7.36,2.31-7.36,7.36-20H329.1l-19.44,39,19.44,39H305.59l-7.36-20-2.31-7.36-2.3,7.36-7.36,20H263.63Z"/><path class="cls-2" d="M457.65,64.49A2.72,2.72,0,0,0,453.9,62L426.8,73.07a2.71,2.71,0,0,0-1.69,2.51v82.93h32.54v-94Z"/><path class="cls-3" d="M417.74,158.43V100.21A2.72,2.72,0,0,0,414,97.7l-27.11,11.09a2.7,2.7,0,0,0-1.57,1.73,3,3,0,0,0-.13.84V148h0v0l9.74,9.73a2.72,2.72,0,0,0,1.92.8h21Z"/><path class="cls-4" d="M465.15,158.31v.2h20.76a2.74,2.74,0,0,0,1.93-.8l9.85-9.85v-129a2.72,2.72,0,0,0-3.75-2.52l-27.1,11.09a2.72,2.72,0,0,0-1.69,2.52v8.61h0Z"/><path class="cls-2" d="M465.15,38.56,443.3,16.71a2.72,2.72,0,0,0-3.84,0l-90.84,90.84a2.73,2.73,0,0,0,0,3.85l29.16,29.16V118.47l-7.07-7.07a2.71,2.71,0,0,1,0-3.85L439.46,38.8a2.72,2.72,0,0,1,3.84,0l21.85,21.85Z"/><path class="cls-2" d="M534.15,107.55l-29-28.95v22.09l6.87,6.86a2.73,2.73,0,0,1,0,3.85l-14.37,14.37-32.54,32.54v.2h20.76a2.74,2.74,0,0,0,1.93-.8l9.85-9.85,36.46-36.46A2.73,2.73,0,0,0,534.15,107.55Z"/></svg>