<svg width="146" height="119" viewBox="0 0 146 119" fill="none" xmlns="http://www.w3.org/2000/svg">
<g clip-path="url(#clip0_39_501)">
<path d="M145.929 118.947H97.8328V118.554H146L145.929 118.947Z" fill="#3F3D56"/>
<path d="M1.27093 3.15826C1.97312 3.15826 2.54236 2.58903 2.54236 1.88684C2.54236 1.18465 1.97312 0.615417 1.27093 0.615417C0.568747 0.615417 -0.000488281 1.18465 -0.000488281 1.88684C-0.000488281 2.58903 0.568747 3.15826 1.27093 3.15826Z" fill="#E6E6E6"/>
<path d="M7.70721 3.15796C8.4094 3.15796 8.97863 2.58872 8.97863 1.88653C8.97863 1.18435 8.4094 0.615112 7.70721 0.615112C7.00503 0.615112 6.43579 1.18435 6.43579 1.88653C6.43579 2.58872 7.00503 3.15796 7.70721 3.15796Z" fill="#E6E6E6"/>
<path d="M14.1431 3.15796C14.8453 3.15796 15.4145 2.58872 15.4145 1.88653C15.4145 1.18435 14.8453 0.615112 14.1431 0.615112C13.4409 0.615112 12.8717 1.18435 12.8717 1.88653C12.8717 2.58872 13.4409 3.15796 14.1431 3.15796Z" fill="#E6E6E6"/>
<path d="M20.579 3.15796C21.2812 3.15796 21.8505 2.58872 21.8505 1.88653C21.8505 1.18435 21.2812 0.615112 20.579 0.615112C19.8769 0.615112 19.3076 1.18435 19.3076 1.88653C19.3076 2.58872 19.8769 3.15796 20.579 3.15796Z" fill="#E6E6E6"/>
<path d="M27.015 3.15796C27.7171 3.15796 28.2864 2.58872 28.2864 1.88653C28.2864 1.18435 27.7171 0.615112 27.015 0.615112C26.3128 0.615112 25.7435 1.18435 25.7435 1.88653C25.7435 2.58872 26.3128 3.15796 27.015 3.15796Z" fill="#E6E6E6"/>
<path d="M33.4509 3.15796C34.1531 3.15796 34.7223 2.58872 34.7223 1.88653C34.7223 1.18435 34.1531 0.615112 33.4509 0.615112C32.7487 0.615112 32.1794 1.18435 32.1794 1.88653C32.1794 2.58872 32.7487 3.15796 33.4509 3.15796Z" fill="#E6E6E6"/>
<path d="M39.8868 3.15796C40.589 3.15796 41.1582 2.58872 41.1582 1.88653C41.1582 1.18435 40.589 0.615112 39.8868 0.615112C39.1846 0.615112 38.6154 1.18435 38.6154 1.88653C38.6154 2.58872 39.1846 3.15796 39.8868 3.15796Z" fill="#E6E6E6"/>
<path d="M46.3227 3.15796C47.0249 3.15796 47.5941 2.58872 47.5941 1.88653C47.5941 1.18435 47.0249 0.615112 46.3227 0.615112C45.6205 0.615112 45.0513 1.18435 45.0513 1.88653C45.0513 2.58872 45.6205 3.15796 46.3227 3.15796Z" fill="#E6E6E6"/>
<path d="M52.7586 3.15796C53.4608 3.15796 54.03 2.58872 54.03 1.88653C54.03 1.18435 53.4608 0.615112 52.7586 0.615112C52.0564 0.615112 51.4872 1.18435 51.4872 1.88653C51.4872 2.58872 52.0564 3.15796 52.7586 3.15796Z" fill="#E6E6E6"/>
<path d="M59.1945 3.15796C59.8967 3.15796 60.4659 2.58872 60.4659 1.88653C60.4659 1.18435 59.8967 0.615112 59.1945 0.615112C58.4923 0.615112 57.9231 1.18435 57.9231 1.88653C57.9231 2.58872 58.4923 3.15796 59.1945 3.15796Z" fill="#E6E6E6"/>
<path d="M1.2713 9.67468C1.97349 9.67468 2.54272 9.10544 2.54272 8.40326C2.54272 7.70107 1.97349 7.13184 1.2713 7.13184C0.569113 7.13184 -0.00012207 7.70107 -0.00012207 8.40326C-0.00012207 9.10544 0.569113 9.67468 1.2713 9.67468Z" fill="#E6E6E6"/>
<path d="M7.70721 9.67468C8.4094 9.67468 8.97863 9.10544 8.97863 8.40326C8.97863 7.70107 8.4094 7.13184 7.70721 7.13184C7.00503 7.13184 6.43579 7.70107 6.43579 8.40326C6.43579 9.10544 7.00503 9.67468 7.70721 9.67468Z" fill="#E6E6E6"/>
<path d="M14.1431 9.67468C14.8453 9.67468 15.4145 9.10544 15.4145 8.40326C15.4145 7.70107 14.8453 7.13184 14.1431 7.13184C13.4409 7.13184 12.8717 7.70107 12.8717 8.40326C12.8717 9.10544 13.4409 9.67468 14.1431 9.67468Z" fill="#E6E6E6"/>
<path d="M20.579 9.67468C21.2812 9.67468 21.8505 9.10544 21.8505 8.40326C21.8505 7.70107 21.2812 7.13184 20.579 7.13184C19.8769 7.13184 19.3076 7.70107 19.3076 8.40326C19.3076 9.10544 19.8769 9.67468 20.579 9.67468Z" fill="#606F8E"/>
<path d="M27.015 9.67468C27.7171 9.67468 28.2864 9.10544 28.2864 8.40326C28.2864 7.70107 27.7171 7.13184 27.015 7.13184C26.3128 7.13184 25.7435 7.70107 25.7435 8.40326C25.7435 9.10544 26.3128 9.67468 27.015 9.67468Z" fill="#E6E6E6"/>
<path d="M33.4509 9.67468C34.1531 9.67468 34.7223 9.10544 34.7223 8.40326C34.7223 7.70107 34.1531 7.13184 33.4509 7.13184C32.7487 7.13184 32.1794 7.70107 32.1794 8.40326C32.1794 9.10544 32.7487 9.67468 33.4509 9.67468Z" fill="#E6E6E6"/>
<path d="M39.8868 9.67468C40.589 9.67468 41.1582 9.10544 41.1582 8.40326C41.1582 7.70107 40.589 7.13184 39.8868 7.13184C39.1846 7.13184 38.6154 7.70107 38.6154 8.40326C38.6154 9.10544 39.1846 9.67468 39.8868 9.67468Z" fill="#E6E6E6"/>
<path d="M46.3227 9.67468C47.0249 9.67468 47.5941 9.10544 47.5941 8.40326C47.5941 7.70107 47.0249 7.13184 46.3227 7.13184C45.6205 7.13184 45.0513 7.70107 45.0513 8.40326C45.0513 9.10544 45.6205 9.67468 46.3227 9.67468Z" fill="#E6E6E6"/>
<path d="M52.7586 9.67468C53.4608 9.67468 54.03 9.10544 54.03 8.40326C54.03 7.70107 53.4608 7.13184 52.7586 7.13184C52.0564 7.13184 51.4872 7.70107 51.4872 8.40326C51.4872 9.10544 52.0564 9.67468 52.7586 9.67468Z" fill="#E6E6E6"/>
<path d="M59.1945 9.67468C59.8967 9.67468 60.4659 9.10544 60.4659 8.40326C60.4659 7.70107 59.8967 7.13184 59.1945 7.13184C58.4923 7.13184 57.9231 7.70107 57.9231 8.40326C57.9231 9.10544 58.4923 9.67468 59.1945 9.67468Z" fill="#E6E6E6"/>
<path d="M1.2713 16.1913C1.97349 16.1913 2.54272 15.6221 2.54272 14.9199C2.54272 14.2177 1.97349 13.6485 1.2713 13.6485C0.569113 13.6485 -0.00012207 14.2177 -0.00012207 14.9199C-0.00012207 15.6221 0.569113 16.1913 1.2713 16.1913Z" fill="#E6E6E6"/>
<path d="M7.70721 16.1913C8.4094 16.1913 8.97863 15.6221 8.97863 14.9199C8.97863 14.2177 8.4094 13.6485 7.70721 13.6485C7.00503 13.6485 6.43579 14.2177 6.43579 14.9199C6.43579 15.6221 7.00503 16.1913 7.70721 16.1913Z" fill="#E6E6E6"/>
<path d="M14.1431 16.1913C14.8453 16.1913 15.4145 15.6221 15.4145 14.9199C15.4145 14.2177 14.8453 13.6485 14.1431 13.6485C13.4409 13.6485 12.8717 14.2177 12.8717 14.9199C12.8717 15.6221 13.4409 16.1913 14.1431 16.1913Z" fill="#E6E6E6"/>
<path d="M20.579 16.1913C21.2812 16.1913 21.8505 15.6221 21.8505 14.9199C21.8505 14.2177 21.2812 13.6485 20.579 13.6485C19.8769 13.6485 19.3076 14.2177 19.3076 14.9199C19.3076 15.6221 19.8769 16.1913 20.579 16.1913Z" fill="#E6E6E6"/>
<path d="M27.015 16.1913C27.7171 16.1913 28.2864 15.6221 28.2864 14.9199C28.2864 14.2177 27.7171 13.6485 27.015 13.6485C26.3128 13.6485 25.7435 14.2177 25.7435 14.9199C25.7435 15.6221 26.3128 16.1913 27.015 16.1913Z" fill="#E6E6E6"/>
<path d="M33.4509 16.1913C34.1531 16.1913 34.7223 15.6221 34.7223 14.9199C34.7223 14.2177 34.1531 13.6485 33.4509 13.6485C32.7487 13.6485 32.1794 14.2177 32.1794 14.9199C32.1794 15.6221 32.7487 16.1913 33.4509 16.1913Z" fill="#E6E6E6"/>
<path d="M39.8868 16.1913C40.589 16.1913 41.1582 15.6221 41.1582 14.9199C41.1582 14.2177 40.589 13.6485 39.8868 13.6485C39.1846 13.6485 38.6154 14.2177 38.6154 14.9199C38.6154 15.6221 39.1846 16.1913 39.8868 16.1913Z" fill="#E6E6E6"/>
<path d="M46.3227 16.1913C47.0249 16.1913 47.5941 15.6221 47.5941 14.9199C47.5941 14.2177 47.0249 13.6485 46.3227 13.6485C45.6205 13.6485 45.0513 14.2177 45.0513 14.9199C45.0513 15.6221 45.6205 16.1913 46.3227 16.1913Z" fill="#E6E6E6"/>
<path d="M52.7586 16.1913C53.4608 16.1913 54.03 15.6221 54.03 14.9199C54.03 14.2177 53.4608 13.6485 52.7586 13.6485C52.0564 13.6485 51.4872 14.2177 51.4872 14.9199C51.4872 15.6221 52.0564 16.1913 52.7586 16.1913Z" fill="#E6E6E6"/>
<path d="M59.1945 16.1913C59.8967 16.1913 60.4659 15.6221 60.4659 14.9199C60.4659 14.2177 59.8967 13.6485 59.1945 13.6485C58.4923 13.6485 57.9231 14.2177 57.9231 14.9199C57.9231 15.6221 58.4923 16.1913 59.1945 16.1913Z" fill="#E6E6E6"/>
<path d="M1.2713 22.7081C1.97349 22.7081 2.54272 22.1388 2.54272 21.4366C2.54272 20.7345 1.97349 20.1652 1.2713 20.1652C0.569113 20.1652 -0.00012207 20.7345 -0.00012207 21.4366C-0.00012207 22.1388 0.569113 22.7081 1.2713 22.7081Z" fill="#E6E6E6"/>
<path d="M7.70721 22.7081C8.4094 22.7081 8.97863 22.1388 8.97863 21.4366C8.97863 20.7345 8.4094 20.1652 7.70721 20.1652C7.00503 20.1652 6.43579 20.7345 6.43579 21.4366C6.43579 22.1388 7.00503 22.7081 7.70721 22.7081Z" fill="#E6E6E6"/>
<path d="M14.1431 22.7081C14.8453 22.7081 15.4145 22.1388 15.4145 21.4366C15.4145 20.7345 14.8453 20.1652 14.1431 20.1652C13.4409 20.1652 12.8717 20.7345 12.8717 21.4366C12.8717 22.1388 13.4409 22.7081 14.1431 22.7081Z" fill="#E6E6E6"/>
<path d="M20.579 22.7081C21.2812 22.7081 21.8505 22.1388 21.8505 21.4366C21.8505 20.7345 21.2812 20.1652 20.579 20.1652C19.8769 20.1652 19.3076 20.7345 19.3076 21.4366C19.3076 22.1388 19.8769 22.7081 20.579 22.7081Z" fill="#E6E6E6"/>
<path d="M27.015 22.7081C27.7171 22.7081 28.2864 22.1388 28.2864 21.4366C28.2864 20.7345 27.7171 20.1652 27.015 20.1652C26.3128 20.1652 25.7435 20.7345 25.7435 21.4366C25.7435 22.1388 26.3128 22.7081 27.015 22.7081Z" fill="#E6E6E6"/>
<path d="M33.4509 22.7081C34.1531 22.7081 34.7223 22.1388 34.7223 21.4366C34.7223 20.7345 34.1531 20.1652 33.4509 20.1652C32.7487 20.1652 32.1794 20.7345 32.1794 21.4366C32.1794 22.1388 32.7487 22.7081 33.4509 22.7081Z" fill="#E6E6E6"/>
<path d="M39.8868 22.7081C40.589 22.7081 41.1582 22.1388 41.1582 21.4366C41.1582 20.7345 40.589 20.1652 39.8868 20.1652C39.1846 20.1652 38.6154 20.7345 38.6154 21.4366C38.6154 22.1388 39.1846 22.7081 39.8868 22.7081Z" fill="#E6E6E6"/>
<path d="M46.3227 22.7081C47.0249 22.7081 47.5941 22.1388 47.5941 21.4366C47.5941 20.7345 47.0249 20.1652 46.3227 20.1652C45.6205 20.1652 45.0513 20.7345 45.0513 21.4366C45.0513 22.1388 45.6205 22.7081 46.3227 22.7081Z" fill="#E6E6E6"/>
<path d="M52.7586 22.7081C53.4608 22.7081 54.03 22.1388 54.03 21.4366C54.03 20.7345 53.4608 20.1652 52.7586 20.1652C52.0564 20.1652 51.4872 20.7345 51.4872 21.4366C51.4872 22.1388 52.0564 22.7081 52.7586 22.7081Z" fill="#E6E6E6"/>
<path d="M59.1945 22.7081C59.8967 22.7081 60.4659 22.1388 60.4659 21.4366C60.4659 20.7345 59.8967 20.1652 59.1945 20.1652C58.4923 20.1652 57.9231 20.7345 57.9231 21.4366C57.9231 22.1388 58.4923 22.7081 59.1945 22.7081Z" fill="#E6E6E6"/>
<path d="M1.2713 29.2248C1.97349 29.2248 2.54272 28.6556 2.54272 27.9534C2.54272 27.2512 1.97349 26.6819 1.2713 26.6819C0.569113 26.6819 -0.00012207 27.2512 -0.00012207 27.9534C-0.00012207 28.6556 0.569113 29.2248 1.2713 29.2248Z" fill="#E6E6E6"/>
<path d="M7.70721 29.2248C8.4094 29.2248 8.97863 28.6556 8.97863 27.9534C8.97863 27.2512 8.4094 26.6819 7.70721 26.6819C7.00503 26.6819 6.43579 27.2512 6.43579 27.9534C6.43579 28.6556 7.00503 29.2248 7.70721 29.2248Z" fill="#606F8E"/>
<path d="M14.1431 29.2248C14.8453 29.2248 15.4145 28.6556 15.4145 27.9534C15.4145 27.2512 14.8453 26.6819 14.1431 26.6819C13.4409 26.6819 12.8717 27.2512 12.8717 27.9534C12.8717 28.6556 13.4409 29.2248 14.1431 29.2248Z" fill="#E6E6E6"/>
<path d="M20.579 29.2248C21.2812 29.2248 21.8505 28.6556 21.8505 27.9534C21.8505 27.2512 21.2812 26.6819 20.579 26.6819C19.8769 26.6819 19.3076 27.2512 19.3076 27.9534C19.3076 28.6556 19.8769 29.2248 20.579 29.2248Z" fill="#E6E6E6"/>
<path d="M27.015 29.2248C27.7171 29.2248 28.2864 28.6556 28.2864 27.9534C28.2864 27.2512 27.7171 26.6819 27.015 26.6819C26.3128 26.6819 25.7435 27.2512 25.7435 27.9534C25.7435 28.6556 26.3128 29.2248 27.015 29.2248Z" fill="#E6E6E6"/>
<path d="M33.4509 29.2248C34.1531 29.2248 34.7223 28.6556 34.7223 27.9534C34.7223 27.2512 34.1531 26.6819 33.4509 26.6819C32.7487 26.6819 32.1794 27.2512 32.1794 27.9534C32.1794 28.6556 32.7487 29.2248 33.4509 29.2248Z" fill="#E6E6E6"/>
<path d="M39.8868 29.2248C40.589 29.2248 41.1582 28.6556 41.1582 27.9534C41.1582 27.2512 40.589 26.6819 39.8868 26.6819C39.1846 26.6819 38.6154 27.2512 38.6154 27.9534C38.6154 28.6556 39.1846 29.2248 39.8868 29.2248Z" fill="#E6E6E6"/>
<path d="M46.3227 29.2248C47.0249 29.2248 47.5941 28.6556 47.5941 27.9534C47.5941 27.2512 47.0249 26.6819 46.3227 26.6819C45.6205 26.6819 45.0513 27.2512 45.0513 27.9534C45.0513 28.6556 45.6205 29.2248 46.3227 29.2248Z" fill="#E6E6E6"/>
<path d="M52.7586 29.2248C53.4608 29.2248 54.03 28.6556 54.03 27.9534C54.03 27.2512 53.4608 26.6819 52.7586 26.6819C52.0564 26.6819 51.4872 27.2512 51.4872 27.9534C51.4872 28.6556 52.0564 29.2248 52.7586 29.2248Z" fill="#E6E6E6"/>
<path d="M59.1945 29.2248C59.8967 29.2248 60.4659 28.6556 60.4659 27.9534C60.4659 27.2512 59.8967 26.6819 59.1945 26.6819C58.4923 26.6819 57.9231 27.2512 57.9231 27.9534C57.9231 28.6556 58.4923 29.2248 59.1945 29.2248Z" fill="#E6E6E6"/>
<path d="M1.2713 35.7415C1.97349 35.7415 2.54272 35.1722 2.54272 34.47C2.54272 33.7678 1.97349 33.1986 1.2713 33.1986C0.569113 33.1986 -0.00012207 33.7678 -0.00012207 34.47C-0.00012207 35.1722 0.569113 35.7415 1.2713 35.7415Z" fill="#E6E6E6"/>
<path d="M7.70721 35.7415C8.4094 35.7415 8.97863 35.1722 8.97863 34.47C8.97863 33.7678 8.4094 33.1986 7.70721 33.1986C7.00503 33.1986 6.43579 33.7678 6.43579 34.47C6.43579 35.1722 7.00503 35.7415 7.70721 35.7415Z" fill="#E6E6E6"/>
<path d="M14.1431 35.7415C14.8453 35.7415 15.4145 35.1722 15.4145 34.47C15.4145 33.7678 14.8453 33.1986 14.1431 33.1986C13.4409 33.1986 12.8717 33.7678 12.8717 34.47C12.8717 35.1722 13.4409 35.7415 14.1431 35.7415Z" fill="#E6E6E6"/>
<path d="M20.579 35.7415C21.2812 35.7415 21.8505 35.1722 21.8505 34.47C21.8505 33.7678 21.2812 33.1986 20.579 33.1986C19.8769 33.1986 19.3076 33.7678 19.3076 34.47C19.3076 35.1722 19.8769 35.7415 20.579 35.7415Z" fill="#E6E6E6"/>
<path d="M27.015 35.7415C27.7171 35.7415 28.2864 35.1722 28.2864 34.47C28.2864 33.7678 27.7171 33.1986 27.015 33.1986C26.3128 33.1986 25.7435 33.7678 25.7435 34.47C25.7435 35.1722 26.3128 35.7415 27.015 35.7415Z" fill="#E6E6E6"/>
<path d="M33.4509 35.7415C34.1531 35.7415 34.7223 35.1722 34.7223 34.47C34.7223 33.7678 34.1531 33.1986 33.4509 33.1986C32.7487 33.1986 32.1794 33.7678 32.1794 34.47C32.1794 35.1722 32.7487 35.7415 33.4509 35.7415Z" fill="#E6E6E6"/>
<path d="M39.8868 35.7415C40.589 35.7415 41.1582 35.1722 41.1582 34.47C41.1582 33.7678 40.589 33.1986 39.8868 33.1986C39.1846 33.1986 38.6154 33.7678 38.6154 34.47C38.6154 35.1722 39.1846 35.7415 39.8868 35.7415Z" fill="#E6E6E6"/>
<path d="M46.3227 35.7415C47.0249 35.7415 47.5941 35.1722 47.5941 34.47C47.5941 33.7678 47.0249 33.1986 46.3227 33.1986C45.6205 33.1986 45.0513 33.7678 45.0513 34.47C45.0513 35.1722 45.6205 35.7415 46.3227 35.7415Z" fill="#E6E6E6"/>
<path d="M52.7586 35.7415C53.4608 35.7415 54.03 35.1722 54.03 34.47C54.03 33.7678 53.4608 33.1986 52.7586 33.1986C52.0564 33.1986 51.4872 33.7678 51.4872 34.47C51.4872 35.1722 52.0564 35.7415 52.7586 35.7415Z" fill="#E6E6E6"/>
<path d="M59.1945 35.7415C59.8967 35.7415 60.4659 35.1722 60.4659 34.47C60.4659 33.7678 59.8967 33.1986 59.1945 33.1986C58.4923 33.1986 57.9231 33.7678 57.9231 34.47C57.9231 35.1722 58.4923 35.7415 59.1945 35.7415Z" fill="#E6E6E6"/>
<path d="M1.2713 42.2582C1.97349 42.2582 2.54272 41.6889 2.54272 40.9868C2.54272 40.2846 1.97349 39.7153 1.2713 39.7153C0.569113 39.7153 -0.00012207 40.2846 -0.00012207 40.9868C-0.00012207 41.6889 0.569113 42.2582 1.2713 42.2582Z" fill="#E6E6E6"/>
<path d="M7.70721 42.2582C8.4094 42.2582 8.97863 41.6889 8.97863 40.9868C8.97863 40.2846 8.4094 39.7153 7.70721 39.7153C7.00503 39.7153 6.43579 40.2846 6.43579 40.9868C6.43579 41.6889 7.00503 42.2582 7.70721 42.2582Z" fill="#E6E6E6"/>
<path d="M14.1431 42.2582C14.8453 42.2582 15.4145 41.6889 15.4145 40.9868C15.4145 40.2846 14.8453 39.7153 14.1431 39.7153C13.4409 39.7153 12.8717 40.2846 12.8717 40.9868C12.8717 41.6889 13.4409 42.2582 14.1431 42.2582Z" fill="#606F8E"/>
<path d="M20.579 42.2582C21.2812 42.2582 21.8505 41.6889 21.8505 40.9868C21.8505 40.2846 21.2812 39.7153 20.579 39.7153C19.8769 39.7153 19.3076 40.2846 19.3076 40.9868C19.3076 41.6889 19.8769 42.2582 20.579 42.2582Z" fill="#E6E6E6"/>
<path d="M27.015 42.2582C27.7171 42.2582 28.2864 41.6889 28.2864 40.9868C28.2864 40.2846 27.7171 39.7153 27.015 39.7153C26.3128 39.7153 25.7435 40.2846 25.7435 40.9868C25.7435 41.6889 26.3128 42.2582 27.015 42.2582Z" fill="#E6E6E6"/>
<path d="M33.4509 42.2582C34.1531 42.2582 34.7223 41.6889 34.7223 40.9868C34.7223 40.2846 34.1531 39.7153 33.4509 39.7153C32.7487 39.7153 32.1794 40.2846 32.1794 40.9868C32.1794 41.6889 32.7487 42.2582 33.4509 42.2582Z" fill="#E6E6E6"/>
<path d="M39.8868 42.2582C40.589 42.2582 41.1582 41.6889 41.1582 40.9868C41.1582 40.2846 40.589 39.7153 39.8868 39.7153C39.1846 39.7153 38.6154 40.2846 38.6154 40.9868C38.6154 41.6889 39.1846 42.2582 39.8868 42.2582Z" fill="#E6E6E6"/>
<path d="M46.3227 42.2582C47.0249 42.2582 47.5941 41.6889 47.5941 40.9868C47.5941 40.2846 47.0249 39.7153 46.3227 39.7153C45.6205 39.7153 45.0513 40.2846 45.0513 40.9868C45.0513 41.6889 45.6205 42.2582 46.3227 42.2582Z" fill="#E6E6E6"/>
<path d="M52.7586 42.2582C53.4608 42.2582 54.03 41.6889 54.03 40.9868C54.03 40.2846 53.4608 39.7153 52.7586 39.7153C52.0564 39.7153 51.4872 40.2846 51.4872 40.9868C51.4872 41.6889 52.0564 42.2582 52.7586 42.2582Z" fill="#E6E6E6"/>
<path d="M59.1945 42.2582C59.8967 42.2582 60.4659 41.6889 60.4659 40.9868C60.4659 40.2846 59.8967 39.7153 59.1945 39.7153C58.4923 39.7153 57.9231 40.2846 57.9231 40.9868C57.9231 41.6889 58.4923 42.2582 59.1945 42.2582Z" fill="#E6E6E6"/>
<path d="M1.2713 48.7749C1.97349 48.7749 2.54272 48.2057 2.54272 47.5035C2.54272 46.8013 1.97349 46.2321 1.2713 46.2321C0.569113 46.2321 -0.00012207 46.8013 -0.00012207 47.5035C-0.00012207 48.2057 0.569113 48.7749 1.2713 48.7749Z" fill="#E6E6E6"/>
<path d="M7.70721 48.7749C8.4094 48.7749 8.97863 48.2057 8.97863 47.5035C8.97863 46.8013 8.4094 46.2321 7.70721 46.2321C7.00503 46.2321 6.43579 46.8013 6.43579 47.5035C6.43579 48.2057 7.00503 48.7749 7.70721 48.7749Z" fill="#E6E6E6"/>
<path d="M14.1431 48.7749C14.8453 48.7749 15.4145 48.2057 15.4145 47.5035C15.4145 46.8013 14.8453 46.2321 14.1431 46.2321C13.4409 46.2321 12.8717 46.8013 12.8717 47.5035C12.8717 48.2057 13.4409 48.7749 14.1431 48.7749Z" fill="#E6E6E6"/>
<path d="M20.579 48.7749C21.2812 48.7749 21.8505 48.2057 21.8505 47.5035C21.8505 46.8013 21.2812 46.2321 20.579 46.2321C19.8769 46.2321 19.3076 46.8013 19.3076 47.5035C19.3076 48.2057 19.8769 48.7749 20.579 48.7749Z" fill="#E6E6E6"/>
<path d="M27.015 48.7749C27.7171 48.7749 28.2864 48.2057 28.2864 47.5035C28.2864 46.8013 27.7171 46.2321 27.015 46.2321C26.3128 46.2321 25.7435 46.8013 25.7435 47.5035C25.7435 48.2057 26.3128 48.7749 27.015 48.7749Z" fill="#E6E6E6"/>
<path d="M33.4509 48.7749C34.1531 48.7749 34.7223 48.2057 34.7223 47.5035C34.7223 46.8013 34.1531 46.2321 33.4509 46.2321C32.7487 46.2321 32.1794 46.8013 32.1794 47.5035C32.1794 48.2057 32.7487 48.7749 33.4509 48.7749Z" fill="#E6E6E6"/>
<path d="M39.8868 48.7749C40.589 48.7749 41.1582 48.2057 41.1582 47.5035C41.1582 46.8013 40.589 46.2321 39.8868 46.2321C39.1846 46.2321 38.6154 46.8013 38.6154 47.5035C38.6154 48.2057 39.1846 48.7749 39.8868 48.7749Z" fill="#E6E6E6"/>
<path d="M46.3227 48.7749C47.0249 48.7749 47.5941 48.2057 47.5941 47.5035C47.5941 46.8013 47.0249 46.2321 46.3227 46.2321C45.6205 46.2321 45.0513 46.8013 45.0513 47.5035C45.0513 48.2057 45.6205 48.7749 46.3227 48.7749Z" fill="#E6E6E6"/>
<path d="M52.7586 48.7749C53.4608 48.7749 54.03 48.2057 54.03 47.5035C54.03 46.8013 53.4608 46.2321 52.7586 46.2321C52.0564 46.2321 51.4872 46.8013 51.4872 47.5035C51.4872 48.2057 52.0564 48.7749 52.7586 48.7749Z" fill="#E6E6E6"/>
<path d="M59.1945 48.7749C59.8967 48.7749 60.4659 48.2057 60.4659 47.5035C60.4659 46.8013 59.8967 46.2321 59.1945 46.2321C58.4923 46.2321 57.9231 46.8013 57.9231 47.5035C57.9231 48.2057 58.4923 48.7749 59.1945 48.7749Z" fill="#E6E6E6"/>
<path d="M1.2713 55.2916C1.97349 55.2916 2.54272 54.7224 2.54272 54.0202C2.54272 53.318 1.97349 52.7488 1.2713 52.7488C0.569113 52.7488 -0.00012207 53.318 -0.00012207 54.0202C-0.00012207 54.7224 0.569113 55.2916 1.2713 55.2916Z" fill="#E6E6E6"/>
<path d="M7.70721 55.2916C8.4094 55.2916 8.97863 54.7224 8.97863 54.0202C8.97863 53.318 8.4094 52.7488 7.70721 52.7488C7.00503 52.7488 6.43579 53.318 6.43579 54.0202C6.43579 54.7224 7.00503 55.2916 7.70721 55.2916Z" fill="#E6E6E6"/>
<path d="M14.1431 55.2916C14.8453 55.2916 15.4145 54.7224 15.4145 54.0202C15.4145 53.318 14.8453 52.7488 14.1431 52.7488C13.4409 52.7488 12.8717 53.318 12.8717 54.0202C12.8717 54.7224 13.4409 55.2916 14.1431 55.2916Z" fill="#E6E6E6"/>
<path d="M20.579 55.2916C21.2812 55.2916 21.8505 54.7224 21.8505 54.0202C21.8505 53.318 21.2812 52.7488 20.579 52.7488C19.8769 52.7488 19.3076 53.318 19.3076 54.0202C19.3076 54.7224 19.8769 55.2916 20.579 55.2916Z" fill="#E6E6E6"/>
<path d="M27.015 55.2916C27.7171 55.2916 28.2864 54.7224 28.2864 54.0202C28.2864 53.318 27.7171 52.7488 27.015 52.7488C26.3128 52.7488 25.7435 53.318 25.7435 54.0202C25.7435 54.7224 26.3128 55.2916 27.015 55.2916Z" fill="#E6E6E6"/>
<path d="M33.4509 55.2916C34.1531 55.2916 34.7223 54.7224 34.7223 54.0202C34.7223 53.318 34.1531 52.7488 33.4509 52.7488C32.7487 52.7488 32.1794 53.318 32.1794 54.0202C32.1794 54.7224 32.7487 55.2916 33.4509 55.2916Z" fill="#E6E6E6"/>
<path d="M39.8868 55.2916C40.589 55.2916 41.1582 54.7224 41.1582 54.0202C41.1582 53.318 40.589 52.7488 39.8868 52.7488C39.1846 52.7488 38.6154 53.318 38.6154 54.0202C38.6154 54.7224 39.1846 55.2916 39.8868 55.2916Z" fill="#E6E6E6"/>
<path d="M46.3227 55.2916C47.0249 55.2916 47.5941 54.7224 47.5941 54.0202C47.5941 53.318 47.0249 52.7488 46.3227 52.7488C45.6205 52.7488 45.0513 53.318 45.0513 54.0202C45.0513 54.7224 45.6205 55.2916 46.3227 55.2916Z" fill="#E6E6E6"/>
<path d="M52.7586 55.2916C53.4608 55.2916 54.03 54.7224 54.03 54.0202C54.03 53.318 53.4608 52.7488 52.7586 52.7488C52.0564 52.7488 51.4872 53.318 51.4872 54.0202C51.4872 54.7224 52.0564 55.2916 52.7586 55.2916Z" fill="#E6E6E6"/>
<path d="M59.1945 55.2916C59.8967 55.2916 60.4659 54.7224 60.4659 54.0202C60.4659 53.318 59.8967 52.7488 59.1945 52.7488C58.4923 52.7488 57.9231 53.318 57.9231 54.0202C57.9231 54.7224 58.4923 55.2916 59.1945 55.2916Z" fill="#E6E6E6"/>
<path d="M1.2713 61.8083C1.97349 61.8083 2.54272 61.2391 2.54272 60.5369C2.54272 59.8347 1.97349 59.2654 1.2713 59.2654C0.569113 59.2654 -0.00012207 59.8347 -0.00012207 60.5369C-0.00012207 61.2391 0.569113 61.8083 1.2713 61.8083Z" fill="#E6E6E6"/>
<path d="M7.70721 61.8083C8.4094 61.8083 8.97863 61.2391 8.97863 60.5369C8.97863 59.8347 8.4094 59.2654 7.70721 59.2654C7.00503 59.2654 6.43579 59.8347 6.43579 60.5369C6.43579 61.2391 7.00503 61.8083 7.70721 61.8083Z" fill="#E6E6E6"/>
<path d="M14.1431 61.8083C14.8453 61.8083 15.4145 61.2391 15.4145 60.5369C15.4145 59.8347 14.8453 59.2654 14.1431 59.2654C13.4409 59.2654 12.8717 59.8347 12.8717 60.5369C12.8717 61.2391 13.4409 61.8083 14.1431 61.8083Z" fill="#E6E6E6"/>
<path d="M20.579 61.8083C21.2812 61.8083 21.8505 61.2391 21.8505 60.5369C21.8505 59.8347 21.2812 59.2654 20.579 59.2654C19.8769 59.2654 19.3076 59.8347 19.3076 60.5369C19.3076 61.2391 19.8769 61.8083 20.579 61.8083Z" fill="#E6E6E6"/>
<path d="M27.015 61.8083C27.7171 61.8083 28.2864 61.2391 28.2864 60.5369C28.2864 59.8347 27.7171 59.2654 27.015 59.2654C26.3128 59.2654 25.7435 59.8347 25.7435 60.5369C25.7435 61.2391 26.3128 61.8083 27.015 61.8083Z" fill="#E6E6E6"/>
<path d="M33.4509 61.8083C34.1531 61.8083 34.7223 61.2391 34.7223 60.5369C34.7223 59.8347 34.1531 59.2654 33.4509 59.2654C32.7487 59.2654 32.1794 59.8347 32.1794 60.5369C32.1794 61.2391 32.7487 61.8083 33.4509 61.8083Z" fill="#E6E6E6"/>
<path d="M39.8868 61.8083C40.589 61.8083 41.1582 61.2391 41.1582 60.5369C41.1582 59.8347 40.589 59.2654 39.8868 59.2654C39.1846 59.2654 38.6154 59.8347 38.6154 60.5369C38.6154 61.2391 39.1846 61.8083 39.8868 61.8083Z" fill="#E6E6E6"/>
<path d="M46.3227 61.8083C47.0249 61.8083 47.5941 61.2391 47.5941 60.5369C47.5941 59.8347 47.0249 59.2654 46.3227 59.2654C45.6205 59.2654 45.0513 59.8347 45.0513 60.5369C45.0513 61.2391 45.6205 61.8083 46.3227 61.8083Z" fill="#E6E6E6"/>
<path d="M52.7586 61.8083C53.4608 61.8083 54.03 61.2391 54.03 60.5369C54.03 59.8347 53.4608 59.2654 52.7586 59.2654C52.0564 59.2654 51.4872 59.8347 51.4872 60.5369C51.4872 61.2391 52.0564 61.8083 52.7586 61.8083Z" fill="#E6E6E6"/>
<path d="M59.1945 61.8083C59.8967 61.8083 60.4659 61.2391 60.4659 60.5369C60.4659 59.8347 59.8967 59.2654 59.1945 59.2654C58.4923 59.2654 57.9231 59.8347 57.9231 60.5369C57.9231 61.2391 58.4923 61.8083 59.1945 61.8083Z" fill="#E6E6E6"/>
<path d="M74.7185 11.9778C75.1448 11.9778 75.5537 12.1472 75.8551 12.4487C76.1566 12.7501 76.326 13.159 76.326 13.5853V77.8827C76.326 78.0938 76.2844 78.3028 76.2036 78.4978C76.1228 78.6929 76.0044 78.8701 75.8551 79.0193C75.7059 79.1686 75.5287 79.287 75.3336 79.3678C75.1386 79.4486 74.9296 79.4901 74.7185 79.4901H28.5851C28.374 79.4901 28.165 79.4486 27.97 79.3678C27.7749 79.287 27.5977 79.1686 27.4485 79.0193C27.2992 78.8701 27.1808 78.6929 27.1 78.4978C27.0192 78.3028 26.9777 78.0938 26.9777 77.8827V13.5853C26.9777 13.159 27.147 12.7501 27.4485 12.4487C27.7499 12.1472 28.1588 11.9778 28.5851 11.9778L74.7185 11.9778Z" fill="#E6E6E6"/>
<path d="M28.7722 77.6956H74.5314V13.7724H28.7722V77.6956Z" fill="white"/>
<path d="M64.3506 23.8857C64.3928 23.8857 64.4346 23.8941 64.4736 23.9102C64.5126 23.9264 64.548 23.9501 64.5779 23.9799C64.6077 24.0098 64.6314 24.0452 64.6476 24.0842C64.6637 24.1232 64.672 24.165 64.672 24.2072V24.8502C64.672 24.9355 64.6382 25.0172 64.5779 25.0775C64.5176 25.1378 64.4358 25.1717 64.3506 25.1717H38.9531C38.9109 25.1717 38.8691 25.1634 38.8301 25.1472C38.791 25.1311 38.7556 25.1074 38.7258 25.0775C38.6959 25.0477 38.6722 25.0122 38.6561 24.9732C38.6399 24.9342 38.6316 24.8924 38.6316 24.8502V24.2072C38.6316 24.165 38.6399 24.1232 38.6561 24.0842C38.6722 24.0452 38.6959 24.0098 38.7258 23.9799C38.7556 23.9501 38.791 23.9264 38.8301 23.9102C38.8691 23.8941 38.9109 23.8857 38.9531 23.8857H64.3506Z" fill="#E6E6E6"/>
<path d="M64.3506 26.9399C64.4358 26.9399 64.5176 26.9738 64.5779 27.034C64.6382 27.0943 64.672 27.1761 64.672 27.2614V27.9043C64.672 27.9896 64.6382 28.0714 64.5779 28.1317C64.5176 28.192 64.4358 28.2258 64.3506 28.2258H38.9531C38.9109 28.2258 38.8691 28.2175 38.8301 28.2014C38.791 28.1852 38.7556 28.1615 38.7258 28.1317C38.6959 28.1018 38.6722 28.0664 38.6561 28.0274C38.6399 27.9884 38.6316 27.9466 38.6316 27.9043V27.2614C38.6316 27.2192 38.6399 27.1773 38.6561 27.1383C38.6722 27.0993 38.6959 27.0639 38.7258 27.034C38.7556 27.0042 38.791 26.9805 38.8301 26.9644C38.8691 26.9482 38.9109 26.9399 38.9531 26.9399H64.3506Z" fill="#E6E6E6"/>
<path d="M64.3506 29.994C64.4358 29.994 64.5176 30.0279 64.5779 30.0882C64.6382 30.1485 64.672 30.2302 64.672 30.3155V30.9585C64.672 31.0437 64.6382 31.1255 64.5779 31.1858C64.5176 31.2461 64.4358 31.28 64.3506 31.28H38.9531C38.8678 31.28 38.786 31.2461 38.7258 31.1858C38.6655 31.1255 38.6316 31.0437 38.6316 30.9585V30.3155C38.6316 30.2302 38.6655 30.1485 38.7258 30.0882C38.786 30.0279 38.8678 29.994 38.9531 29.994H64.3506Z" fill="#606F8E"/>
<path d="M64.3506 33.115C64.4358 33.115 64.5176 33.1489 64.5779 33.2091C64.6382 33.2694 64.672 33.3512 64.672 33.4365V34.0795C64.672 34.1647 64.6382 34.2465 64.5779 34.3068C64.5176 34.3671 64.4358 34.4009 64.3506 34.4009H38.9531C38.9109 34.4009 38.8691 34.3926 38.8301 34.3765C38.791 34.3603 38.7556 34.3366 38.7258 34.3068C38.6959 34.2769 38.6722 34.2415 38.6561 34.2025C38.6399 34.1635 38.6316 34.1217 38.6316 34.0795V33.4365C38.6316 33.3943 38.6399 33.3525 38.6561 33.3134C38.6722 33.2744 38.6959 33.239 38.7258 33.2091C38.7556 33.1793 38.791 33.1556 38.8301 33.1395C38.8691 33.1233 38.9109 33.115 38.9531 33.115H64.3506Z" fill="#E6E6E6"/>
<path d="M64.3506 36.1691C64.4358 36.1691 64.5176 36.2029 64.5779 36.2632C64.6382 36.3235 64.672 36.4053 64.672 36.4906V37.1335C64.672 37.1757 64.6637 37.2176 64.6476 37.2566C64.6314 37.2956 64.6077 37.331 64.5779 37.3609C64.548 37.3907 64.5126 37.4144 64.4736 37.4305C64.4346 37.4467 64.3928 37.455 64.3506 37.455H38.9531C38.9109 37.455 38.8691 37.4467 38.8301 37.4305C38.791 37.4144 38.7556 37.3907 38.7258 37.3609C38.6959 37.331 38.6722 37.2956 38.6561 37.2566C38.6399 37.2176 38.6316 37.1757 38.6316 37.1335V36.4906C38.6316 36.4483 38.6399 36.4065 38.6561 36.3675C38.6722 36.3285 38.6959 36.2931 38.7258 36.2632C38.7556 36.2334 38.791 36.2097 38.8301 36.1935C38.8691 36.1774 38.9109 36.1691 38.9531 36.1691H64.3506Z" fill="#E6E6E6"/>
<path d="M64.3506 39.2232C64.4358 39.2232 64.5176 39.2571 64.5779 39.3174C64.6382 39.3777 64.672 39.4594 64.672 39.5447V40.1877C64.672 40.2729 64.6382 40.3547 64.5779 40.415C64.5176 40.4753 64.4358 40.5092 64.3506 40.5092H38.9531C38.8678 40.5092 38.786 40.4753 38.7258 40.415C38.6655 40.3547 38.6316 40.2729 38.6316 40.1877V39.5447C38.6316 39.4594 38.6655 39.3777 38.7258 39.3174C38.786 39.2571 38.8678 39.2232 38.9531 39.2232H64.3506Z" fill="#E6E6E6"/>
<path d="M39.1153 49.4971C39.0163 49.4972 38.9215 49.5366 38.8515 49.6066C38.7815 49.6765 38.7422 49.7714 38.7421 49.8703V67.2091C38.7422 67.308 38.7815 67.4029 38.8515 67.4729C38.9215 67.5428 39.0163 67.5822 39.1153 67.5823H64.1451C64.2441 67.5822 64.3389 67.5428 64.4089 67.4729C64.4789 67.4029 64.5182 67.308 64.5183 67.2091V49.8703C64.5182 49.7714 64.4789 49.6765 64.4089 49.6066C64.339 49.5366 64.2441 49.4972 64.1451 49.4971H39.1153Z" fill="#606F8E"/>
<path d="M51.7353 30.6928L51.4725 30.623L57.2064 9.05359H90.4646V9.32548H57.4152L51.7353 30.6928Z" fill="#3F3D56"/>
<path d="M93.1821 12.0429C92.6178 12.0429 92.0661 11.8756 91.5969 11.562C91.1276 11.2485 90.7619 10.8029 90.5459 10.2815C90.33 9.76008 90.2735 9.18636 90.3836 8.63285C90.4937 8.07935 90.7654 7.57092 91.1645 7.17186C91.5635 6.77281 92.072 6.50105 92.6255 6.39095C93.179 6.28085 93.7527 6.33736 94.2741 6.55333C94.7955 6.76929 95.2411 7.13502 95.5547 7.60426C95.8682 8.0735 96.0355 8.62517 96.0355 9.18952C96.0347 9.94603 95.7338 10.6713 95.1988 11.2062C94.6639 11.7412 93.9386 12.0421 93.1821 12.0429ZM93.1821 6.60788C92.6715 6.60788 92.1724 6.75929 91.7479 7.04296C91.3233 7.32664 90.9924 7.72984 90.797 8.20157C90.6016 8.6733 90.5505 9.19239 90.6501 9.69318C90.7497 10.194 90.9956 10.654 91.3566 11.015C91.7177 11.3761 92.1777 11.622 92.6785 11.7216C93.1793 11.8212 93.6984 11.7701 94.1701 11.5747C94.6418 11.3793 95.045 11.0484 95.3287 10.6238C95.6124 10.1993 95.7638 9.70012 95.7638 9.18952C95.763 8.50507 95.4908 7.84887 95.0068 7.36488C94.5228 6.8809 93.8666 6.60865 93.1821 6.60788Z" fill="#3F3D56"/>
<path d="M93.1821 10.2766C93.7824 10.2766 94.2691 9.78989 94.2691 9.18955C94.2691 8.58921 93.7824 8.10254 93.1821 8.10254C92.5818 8.10254 92.0951 8.58921 92.0951 9.18955C92.0951 9.78989 92.5818 10.2766 93.1821 10.2766Z" fill="#606F8E"/>
<path d="M50.8463 67.2229L51.1089 67.2931L45.334 88.8515L12.0758 88.7878L12.0764 88.516L45.1255 88.5794L50.8463 67.2229Z" fill="#3F3D56"/>
<path d="M9.36388 85.7933C9.92822 85.7944 10.4796 85.9628 10.9482 86.2773C11.4169 86.5917 11.7817 87.038 11.9967 87.5598C12.2117 88.0816 12.2671 88.6555 12.1559 89.2088C12.0447 89.7621 11.772 90.27 11.3722 90.6683C10.9724 91.0665 10.4634 91.3373 9.90971 91.4464C9.356 91.5554 8.78238 91.4978 8.2614 91.2808C7.74043 91.0639 7.29549 90.6973 6.98286 90.2274C6.67022 89.7576 6.50393 89.2056 6.50501 88.6413C6.50732 87.8848 6.80961 87.1601 7.34556 86.6262C7.88152 86.0923 8.60737 85.7927 9.36388 85.7933ZM9.35346 91.2284C9.86406 91.2294 10.3635 91.0789 10.7886 90.796C11.2137 90.5132 11.5453 90.1106 11.7416 89.6392C11.9379 89.1679 11.9901 88.6489 11.8914 88.1479C11.7928 87.6469 11.5478 87.1865 11.1874 86.8247C10.827 86.463 10.3675 86.2162 9.86691 86.1157C9.36631 86.0151 8.84713 86.0652 8.37502 86.2597C7.90291 86.4542 7.49908 86.7843 7.2146 87.2083C6.93011 87.6323 6.77774 88.1312 6.77676 88.6418C6.77623 89.3262 7.04721 89.983 7.53027 90.4679C8.01332 90.9528 8.66901 91.2263 9.35346 91.2284Z" fill="#3F3D56"/>
<path d="M9.35849 89.7337C9.95883 89.7337 10.4455 89.247 10.4455 88.6467C10.4455 88.0464 9.95883 87.5597 9.35849 87.5597C8.75816 87.5597 8.27148 88.0464 8.27148 88.6467C8.27148 89.247 8.75816 89.7337 9.35849 89.7337Z" fill="#606F8E"/>
<path d="M115.105 112.69H113.187L113.53 102.074L118.598 102.348L115.105 112.69Z" fill="#FFB8B8"/>
<path d="M115.367 118.792C114.788 119.056 114.303 116.915 113.814 117.395C112.449 118.738 111.037 119.03 109.214 118.444L109.172 118.437C109.062 118.401 108.961 118.344 108.873 118.268C108.786 118.192 108.715 118.1 108.665 117.996C108.615 117.892 108.586 117.778 108.581 117.663C108.575 117.548 108.594 117.432 108.634 117.324C108.683 117.195 108.762 117.079 108.865 116.987C108.968 116.895 109.092 116.829 109.226 116.796L110.679 116.432L112.96 112.422L115.288 112.264C115.807 112.926 116.169 113.697 116.347 114.519C116.526 115.341 116.515 116.192 116.317 117.009C116.105 117.872 115.779 118.603 115.367 118.792Z" fill="#2F2E41"/>
<path d="M133.325 111.287L131.542 111.993L127.955 101.994L132.769 100.385L133.325 111.287Z" fill="#FFB8B8"/>
<path d="M135.812 116.865C135.371 117.323 134.133 115.511 133.855 116.137C133.079 117.887 131.874 118.678 129.964 118.804L129.922 118.813C129.806 118.82 129.691 118.804 129.582 118.766C129.473 118.727 129.373 118.667 129.288 118.589C129.203 118.511 129.134 118.416 129.087 118.311C129.04 118.205 129.014 118.091 129.012 117.976C129.01 117.838 129.041 117.701 129.103 117.577C129.165 117.454 129.256 117.347 129.368 117.267L130.586 116.395L131.231 111.826L133.338 110.824C134.064 111.248 134.685 111.832 135.153 112.53C135.621 113.229 135.924 114.025 136.04 114.858C136.161 115.737 136.127 116.538 135.812 116.865Z" fill="#2F2E41"/>
<path d="M127.503 60.0236L124.558 60.7807C124.336 60.838 124.103 60.8447 123.877 60.8002C123.651 60.7558 123.438 60.6614 123.254 60.524C123.069 60.3865 122.918 60.2095 122.811 60.0059C122.704 59.8024 122.644 59.5774 122.635 59.3475C122.627 59.1361 122.662 58.9253 122.739 58.7283C122.816 58.5312 122.933 58.3521 123.082 58.202C123.231 58.052 123.409 57.9343 123.606 57.8562C123.802 57.7781 124.013 57.7413 124.224 57.7481L126.818 57.8318L131.815 56.012L127.092 52.4893L127.64 47.5578L136.845 54.9482C137.009 55.08 137.145 55.2443 137.242 55.4307C137.34 55.6171 137.398 55.8218 137.413 56.0317C137.439 56.3847 137.341 56.7355 137.136 57.0243C136.932 57.3131 136.633 57.522 136.292 57.6155C134.135 59.3758 130.993 59.9149 127.503 60.0236Z" fill="#FFB8B8"/>
<path d="M120.79 41.5304C123.438 41.5304 125.585 39.3838 125.585 36.7359C125.585 34.0879 123.438 31.9413 120.79 31.9413C118.142 31.9413 115.996 34.0879 115.996 36.7359C115.996 39.3838 118.142 41.5304 120.79 41.5304Z" fill="#FFB8B8"/>
<path d="M126.681 43.3112L120.242 45.914C120.432 43.8787 119.898 41.8419 118.736 40.1605L124.078 38.9277C124.009 40.5593 124.891 42.0178 126.681 43.3112Z" fill="#FFB8B8"/>
<path d="M127.845 54.4756C122.655 54.891 119.816 54.2018 115.448 51.6674L117.092 47.8318C117.009 47.2543 117.088 46.6652 117.318 46.1293C117.549 45.5934 117.923 45.1314 118.399 44.7942L120.106 43.5852L125.311 42.0784L125.545 42.09C126.237 42.1247 126.893 42.4106 127.39 42.8942C127.887 43.3779 128.19 44.026 128.243 44.7173C129.374 48.0969 129.381 51.3637 127.845 54.4756Z" fill="#606F8E"/>
<path d="M126.818 62.4893L115.722 61.2564L114.9 57.6948C113.078 54.9446 113.873 52.4255 115.996 50.0236C119.865 52.5066 123.456 53.5795 128.599 52.7633C127.231 56.0893 125.968 59.358 126.818 62.4893Z" fill="#2F2E41"/>
<path d="M135.448 103.996L126.612 103.517L123.736 80.64L121.407 103.38L110.927 102.9C114.124 87.951 116.345 73.7591 115.722 60.7085L126.681 61.6674C130.395 65.5835 132.239 71.8347 133.325 79.2702C134.41 86.7056 135.285 95.3252 135.448 103.996Z" fill="#2F2E41"/>
<path d="M126.068 32.3712C126.979 32.3712 127.716 31.6333 127.716 30.7232C127.716 29.813 126.979 29.0752 126.068 29.0752C125.158 29.0752 124.42 29.813 124.42 30.7232C124.42 31.6333 125.158 32.3712 126.068 32.3712Z" fill="#2F2E41"/>
<path d="M124.37 30.3197C124.397 29.9016 124.583 29.5095 124.889 29.2233C125.195 28.9372 125.599 28.7784 126.018 28.7794C125.984 28.7751 125.95 28.7698 125.915 28.7676C125.479 28.7396 125.049 28.886 124.721 29.1745C124.393 29.4631 124.193 29.8703 124.165 30.3065C124.137 30.7427 124.283 31.1721 124.572 31.5004C124.86 31.8286 125.267 32.0288 125.704 32.0568C125.738 32.059 125.772 32.0582 125.807 32.0582C125.391 32.0056 125.011 31.7965 124.744 31.4734C124.477 31.1504 124.344 30.7378 124.37 30.3197Z" fill="#2F2E41"/>
<path d="M124.361 31.0235C122.891 29.8042 118.676 31.3538 118.404 32.1735C116.416 32.4444 114.911 33.604 114.911 35.6658C116.093 36.1499 117.437 36.0903 118.89 35.6658C121.205 37.5531 121.364 39.9255 119.956 42.6504L121.688 42.6851L123.836 39.5462L123.939 42.7301L127.91 42.6504V38.0877C127.923 36.5706 127.574 35.0723 126.892 33.7173C126.273 32.5149 125.313 31.8128 124.361 31.0235Z" fill="#2F2E41"/>
<path d="M120.663 39.0848C121.098 39.0848 121.451 38.5909 121.451 37.9815C121.451 37.3722 121.098 36.8782 120.663 36.8782C120.227 36.8782 119.875 37.3722 119.875 37.9815C119.875 38.5909 120.227 39.0848 120.663 39.0848Z" fill="#FFB8B8"/>
<path d="M114.635 80.2945C114.708 80.2945 114.778 80.3237 114.83 80.3756C114.882 80.4275 114.911 80.4978 114.911 80.5712V91.6407C114.911 91.7141 114.882 91.7845 114.83 91.8364C114.778 91.8883 114.708 91.9174 114.635 91.9174H106.692C106.619 91.9174 106.549 91.8883 106.497 91.8364C106.445 91.7845 106.416 91.7141 106.416 91.6407V80.5712C106.416 80.4978 106.445 80.4275 106.497 80.3756C106.549 80.3237 106.619 80.2945 106.692 80.2945H114.635Z" fill="#606F8E"/>
<path d="M115.722 76.188L115.99 80.837C116.007 81.1363 115.958 81.4356 115.845 81.7133C115.732 81.991 115.559 82.2401 115.338 82.4425C115.117 82.6449 114.853 82.7955 114.567 82.8834C114.28 82.9713 113.977 82.9943 113.681 82.9507C112.5 82.777 112.473 81.6219 112.762 80.4636L113.866 76.051C116.572 66.3477 117.302 56.8237 117.166 47.5351C117.16 47.2201 117.218 46.9073 117.337 46.6154C117.456 46.3236 117.632 46.0588 117.856 45.8371C118.08 45.6154 118.346 45.4413 118.639 45.3254C118.932 45.2094 119.245 45.1541 119.56 45.1626C119.868 45.1715 120.17 45.2411 120.45 45.3673C120.731 45.4936 120.983 45.674 121.193 45.8982C121.403 46.1224 121.567 46.386 121.675 46.6737C121.783 46.9615 121.833 47.2678 121.822 47.5749C121.439 58.4822 119.848 68.3872 115.722 76.188Z" fill="#FFB8B8"/>
</g>
<defs>
<clipPath id="clip0_39_501">
<rect width="146" height="118.332" fill="white" transform="translate(0 0.61499)"/>
</clipPath>
</defs>
</svg>
