<svg width="133" height="129" viewBox="0 0 133 129" fill="none" xmlns="http://www.w3.org/2000/svg">
<path d="M121.235 128.872V115.986C121.235 115.986 126.257 125.121 121.235 128.872Z" fill="#F1F1F1"/>
<path d="M121.545 128.869L112.052 120.155C112.052 120.155 122.178 122.634 121.545 128.869Z" fill="#F1F1F1"/>
<path d="M88.0648 57.3649L37.6927 86.8056C37.5164 86.9084 37.3065 86.937 37.1091 86.8853C36.9117 86.8335 36.7429 86.7055 36.6397 86.5295L4.24719 31.1069C4.14442 30.9306 4.11578 30.7207 4.16754 30.5233C4.21931 30.3259 4.34727 30.1571 4.52333 30.0539L54.8955 0.613219C55.0718 0.510447 55.2816 0.481803 55.479 0.533571C55.6764 0.585339 55.8452 0.713292 55.9484 0.889359L88.3409 56.312C88.4437 56.4883 88.4724 56.6981 88.4206 56.8955C88.3688 57.0929 88.2409 57.2617 88.0648 57.3649Z" fill="white"/>
<path d="M88.0648 57.3649L37.6927 86.8056C37.5164 86.9084 37.3065 86.937 37.1091 86.8853C36.9117 86.8335 36.7429 86.7055 36.6397 86.5295L4.24719 31.1069C4.14442 30.9306 4.11578 30.7207 4.16754 30.5233C4.21931 30.3259 4.34727 30.1571 4.52333 30.0539L54.8955 0.613219C55.0718 0.510447 55.2816 0.481803 55.479 0.533571C55.6764 0.585339 55.8452 0.713292 55.9484 0.889359L88.3409 56.312C88.4437 56.4883 88.4724 56.6981 88.4206 56.8955C88.3688 57.0929 88.2409 57.2617 88.0648 57.3649ZM4.67869 30.3197C4.57305 30.3816 4.49627 30.4829 4.46521 30.6014C4.43415 30.7198 4.45134 30.8457 4.51301 30.9515L36.9056 86.3741C36.9675 86.4798 37.0687 86.5565 37.1872 86.5876C37.3056 86.6187 37.4315 86.6015 37.5373 86.5398L87.9094 57.0991C88.0151 57.0372 88.0919 56.9359 88.1229 56.8175C88.154 56.699 88.1368 56.5731 88.0751 56.4673L55.6826 1.04471C55.6207 0.939066 55.5194 0.862289 55.401 0.831228C55.2825 0.800166 55.1566 0.817356 55.0508 0.879025L4.67869 30.3197Z" fill="#3F3D56"/>
<path d="M37.058 35.839L24.5647 43.1409C24.3884 43.2437 24.1785 43.2724 23.9811 43.2206C23.7837 43.1688 23.6149 43.0409 23.5118 42.8648L16.2098 30.3715C16.1071 30.1952 16.0784 29.9853 16.1302 29.7879C16.182 29.5905 16.3099 29.4217 16.486 29.3185L28.9793 22.0166C29.1556 21.9138 29.3655 21.8852 29.5629 21.937C29.7603 21.9887 29.9291 22.1167 30.0323 22.2927L37.3342 34.7861C37.437 34.9624 37.4656 35.1723 37.4138 35.3697C37.3621 35.5671 37.2341 35.7359 37.058 35.839ZM16.6413 29.5843C16.5357 29.6462 16.4589 29.7475 16.4279 29.866C16.3968 29.9844 16.414 30.1103 16.4757 30.2161L23.7776 42.7094C23.8395 42.8151 23.9408 42.8919 24.0592 42.9229C24.1776 42.954 24.3036 42.9368 24.4093 42.8751L36.9027 35.5732C37.0083 35.5113 37.0851 35.41 37.1162 35.2916C37.1472 35.1732 37.13 35.0472 37.0684 34.9414L29.7665 22.4481C29.7046 22.3425 29.6033 22.2657 29.4848 22.2346C29.3664 22.2036 29.2405 22.2207 29.1347 22.2824L16.6413 29.5843Z" fill="#F2F2F2"/>
<path d="M34.3627 39.4648L21.8693 46.7667C21.7107 46.8592 21.5218 46.885 21.3441 46.8384C21.1665 46.7918 21.0145 46.6767 20.9217 46.5182L13.6198 34.0248C13.5273 33.8662 13.5015 33.6773 13.5481 33.4996C13.5947 33.322 13.7098 33.1701 13.8683 33.0772L26.3616 25.7753C26.5203 25.6828 26.7092 25.657 26.8868 25.7036C27.0645 25.7502 27.2164 25.8653 27.3093 26.0238L34.6112 38.5172C34.7037 38.6758 34.7295 38.8647 34.6829 39.0424C34.6363 39.22 34.5211 39.3719 34.3627 39.4648Z" fill="#606F8E"/>
<path d="M64.5174 30.0426L25.4425 52.8805C25.2838 52.9732 25.0949 52.9991 24.9172 52.9525C24.7394 52.9059 24.5875 52.7906 24.4948 52.632C24.4021 52.4734 24.3762 52.2844 24.4228 52.1067C24.4694 51.929 24.5847 51.7771 24.7433 51.6843L63.8183 28.8464C63.8968 28.8005 63.9836 28.7705 64.0738 28.7582C64.1639 28.7458 64.2556 28.7514 64.3436 28.7744C64.4316 28.7975 64.5142 28.8377 64.5866 28.8927C64.6591 28.9477 64.72 29.0164 64.7659 29.095C64.8118 29.1735 64.8418 29.2603 64.8542 29.3504C64.8665 29.4406 64.861 29.5323 64.8379 29.6203C64.8148 29.7082 64.7747 29.7908 64.7197 29.8633C64.6647 29.9358 64.5959 29.9967 64.5174 30.0426Z" fill="#CCCCCC"/>
<path d="M57.4891 39.678L27.8507 57.0007C27.7721 57.0466 27.6853 57.0766 27.5952 57.0889C27.505 57.1013 27.4134 57.0958 27.3254 57.0727C27.1476 57.0261 26.9957 56.9108 26.903 56.7521C26.8103 56.5935 26.7844 56.4046 26.831 56.2269C26.8776 56.0491 26.9929 55.8972 27.1515 55.8045L56.79 38.4819C56.8686 38.436 56.9554 38.406 57.0455 38.3936C57.1356 38.3813 57.2273 38.3868 57.3153 38.4099C57.4033 38.4329 57.4859 38.4731 57.5584 38.5281C57.6308 38.5831 57.6918 38.6519 57.7377 38.7304C57.7836 38.8089 57.8135 38.8958 57.8259 38.9859C57.8383 39.076 57.8327 39.1677 57.8097 39.2557C57.7866 39.3437 57.7464 39.4263 57.6914 39.4987C57.6364 39.5712 57.5677 39.6321 57.4891 39.678Z" fill="#CCCCCC"/>
<path d="M55.5291 14.9688L38.251 25.0671C38.0924 25.1599 37.9035 25.1858 37.7258 25.1391C37.548 25.0925 37.3961 24.9772 37.3034 24.8186C37.2107 24.66 37.1848 24.471 37.2314 24.2933C37.278 24.1156 37.3933 23.9637 37.5519 23.871L54.83 13.7726C54.9886 13.6799 55.1775 13.654 55.3553 13.7006C55.4432 13.7237 55.5258 13.7638 55.5983 13.8188C55.6708 13.8738 55.7317 13.9426 55.7776 14.0211C55.8235 14.0996 55.8535 14.1865 55.8659 14.2766C55.8782 14.3667 55.8727 14.4584 55.8496 14.5464C55.8265 14.6344 55.7863 14.717 55.7313 14.7895C55.6764 14.8619 55.6076 14.9228 55.5291 14.9688Z" fill="#CCCCCC"/>
<path d="M53.6253 21.6091L40.6593 29.1873C40.5807 29.2332 40.4939 29.2632 40.4038 29.2756C40.3136 29.2879 40.222 29.2824 40.134 29.2593C40.046 29.2362 39.9634 29.1961 39.8909 29.1411C39.8184 29.0861 39.7575 29.0173 39.7116 28.9388C39.6657 28.8602 39.6357 28.7734 39.6234 28.6833C39.611 28.5932 39.6165 28.5015 39.6396 28.4135C39.6627 28.3255 39.7029 28.2429 39.7579 28.1704C39.8129 28.098 39.8816 28.037 39.9601 27.9911L52.9261 20.413C53.0848 20.3203 53.2737 20.2944 53.4514 20.341C53.6292 20.3876 53.7811 20.5029 53.8738 20.6615C53.9665 20.8201 53.9924 21.0091 53.9458 21.1868C53.8992 21.3645 53.7839 21.5164 53.6253 21.6091Z" fill="#CCCCCC"/>
<path d="M69.3336 38.2829L30.2586 61.1208C30.1 61.2135 29.911 61.2394 29.7333 61.1928C29.5556 61.1462 29.4037 61.0309 29.311 60.8723C29.2183 60.7137 29.1924 60.5247 29.239 60.347C29.2856 60.1693 29.4009 60.0173 29.5595 59.9246L68.6344 37.0867C68.7931 36.994 68.982 36.9681 69.1597 37.0147C69.3374 37.0613 69.4894 37.1766 69.5821 37.3353C69.6748 37.4939 69.7007 37.6828 69.6541 37.8606C69.6075 38.0383 69.4922 38.1902 69.3336 38.2829Z" fill="#CCCCCC"/>
<path d="M62.3053 47.9183L32.6668 65.241C32.5883 65.2869 32.5015 65.3169 32.4113 65.3292C32.3212 65.3416 32.2295 65.336 32.1415 65.313C32.0535 65.2899 31.9709 65.2497 31.8985 65.1947C31.826 65.1397 31.7651 65.071 31.7192 64.9924C31.6733 64.9139 31.6433 64.8271 31.6309 64.737C31.6186 64.6468 31.6241 64.5551 31.6472 64.4671C31.6702 64.3792 31.7104 64.2966 31.7654 64.2241C31.8204 64.1516 31.8892 64.0907 31.9677 64.0448L61.6062 46.7222C61.6847 46.6763 61.7715 46.6463 61.8617 46.6339C61.9518 46.6216 62.0435 46.6271 62.1315 46.6502C62.2195 46.6732 62.3021 46.7134 62.3745 46.7684C62.447 46.8234 62.5079 46.8921 62.5538 46.9707C62.5997 47.0492 62.6297 47.136 62.6421 47.2262C62.6544 47.3163 62.6489 47.408 62.6258 47.496C62.6027 47.584 62.5626 47.6666 62.5076 47.739C62.4526 47.8115 62.3838 47.8724 62.3053 47.9183Z" fill="#CCCCCC"/>
<path d="M74.1497 46.5232L35.0748 69.3611C34.9962 69.407 34.9094 69.437 34.8193 69.4494C34.7292 69.4617 34.6375 69.4562 34.5495 69.4331C34.4615 69.41 34.3789 69.3698 34.3064 69.3148C34.234 69.2599 34.173 69.1911 34.1271 69.1126C34.0812 69.034 34.0512 68.9472 34.0389 68.8571C34.0265 68.767 34.0321 68.6753 34.0551 68.5873C34.0782 68.4993 34.1184 68.4167 34.1734 68.3442C34.2284 68.2718 34.2971 68.2108 34.3757 68.1649L73.4506 45.327C73.5291 45.2811 73.616 45.2511 73.7061 45.2388C73.7962 45.2264 73.8879 45.2319 73.9759 45.255C74.0639 45.2781 74.1465 45.3183 74.2189 45.3733C74.2914 45.4283 74.3523 45.497 74.3982 45.5755C74.4442 45.6541 74.4741 45.7409 74.4865 45.831C74.4988 45.9212 74.4933 46.0128 74.4702 46.1008C74.4472 46.1888 74.407 46.2714 74.352 46.3439C74.297 46.4164 74.2283 46.4773 74.1497 46.5232Z" fill="#CCCCCC"/>
<path d="M76.5579 50.6433L37.483 73.4812C37.4044 73.5271 37.3176 73.5571 37.2275 73.5695C37.1374 73.5818 37.0457 73.5763 36.9577 73.5532C36.8697 73.5301 36.7871 73.49 36.7146 73.435C36.6422 73.38 36.5812 73.3112 36.5353 73.2327C36.4894 73.1542 36.4594 73.0673 36.4471 72.9772C36.4347 72.8871 36.4403 72.7954 36.4633 72.7074C36.4864 72.6194 36.5266 72.5368 36.5816 72.4643C36.6366 72.3919 36.7053 72.331 36.7839 72.2851L75.8588 49.4471C75.9373 49.4012 76.0242 49.3712 76.1143 49.3589C76.2044 49.3465 76.2961 49.3521 76.3841 49.3751C76.4721 49.3982 76.5547 49.4384 76.6271 49.4934C76.6996 49.5484 76.7605 49.6171 76.8064 49.6957C76.8523 49.7742 76.8823 49.861 76.8947 49.9512C76.907 50.0413 76.9015 50.133 76.8784 50.221C76.8554 50.309 76.8152 50.3916 76.7602 50.464C76.7052 50.5365 76.6365 50.5974 76.5579 50.6433Z" fill="#CCCCCC"/>
<path d="M63.9218 66.6825C64.4647 66.0432 64.9534 65.3598 65.3827 64.6393C65.7678 63.9894 66.1455 63.2944 66.2304 62.5322C66.2738 62.2076 66.24 61.8773 66.1317 61.5682C66.0234 61.2592 65.8437 60.98 65.6072 60.7535C65.3786 60.5428 65.0889 60.4103 64.78 60.3751C64.4711 60.34 64.159 60.4041 63.889 60.5582C63.6157 60.715 63.3899 60.9428 63.2355 61.2175C63.0812 61.4922 63.0039 61.8035 63.0121 62.1185C63.0342 62.4654 63.1344 62.8027 63.3052 63.1054C63.4759 63.4081 63.7128 63.6683 63.9982 63.8667C65.1531 64.7035 66.9569 64.6597 68.1879 64.0229C69.5744 63.3057 70.2908 61.4291 69.2015 60.1446C68.9749 59.8774 68.5979 60.176 68.6546 60.4642C68.7266 60.8535 68.9445 61.2006 69.2638 61.4347C69.5832 61.6687 69.9798 61.772 70.3727 61.7234C70.7656 61.6749 71.1252 61.4781 71.3779 61.1734C71.6306 60.8687 71.7575 60.4789 71.7325 60.0838L71.2428 60.37C71.8432 60.636 72.503 60.7391 73.1559 60.6691C73.8088 60.599 74.4317 60.3583 74.962 59.971C75.2243 59.7805 75.4586 59.554 75.658 59.2984C75.8977 58.9857 76.3003 58.7836 76.6264 58.5584L78.976 56.9349C79.3216 56.6961 78.9929 56.127 78.6445 56.3678L76.5166 57.8381C76.162 58.0831 75.805 58.3251 75.4526 58.5732C75.2007 58.7506 75.0457 59.037 74.8164 59.2476C74.3824 59.638 73.8463 59.897 73.2706 59.9944C72.695 60.0918 72.1035 60.0235 71.5652 59.7976C71.5151 59.7706 71.4588 59.757 71.4019 59.758C71.345 59.759 71.2893 59.7746 71.2401 59.8034C71.191 59.8321 71.15 59.873 71.1212 59.9221C71.0924 59.9712 71.0767 60.0269 71.0755 60.0838C71.1015 60.3196 71.0332 60.556 70.8856 60.7417C70.738 60.9274 70.523 61.0472 70.2875 61.0751C70.0519 61.103 69.8149 61.0367 69.628 60.8907C69.4411 60.7446 69.3195 60.5306 69.2896 60.2953L68.7428 60.615C69.4455 61.4436 68.9775 62.7146 68.168 63.2706C67.2626 63.8925 65.9247 64.0004 64.9042 63.6139C64.6538 63.5277 64.4239 63.3909 64.2289 63.2119C64.0338 63.0329 63.8777 62.8156 63.7704 62.5736C63.6709 62.355 63.6425 62.1106 63.6892 61.875C63.736 61.6394 63.8554 61.4244 64.0308 61.2603C64.1828 61.1101 64.3871 61.0249 64.6008 61.0226C64.8144 61.0204 65.0205 61.1012 65.1756 61.248C65.3446 61.4206 65.4686 61.632 65.5367 61.8637C65.6047 62.0954 65.6147 62.3403 65.5659 62.5768C65.4606 63.2349 65.0968 63.8417 64.7584 64.4038C64.3719 65.0443 63.9349 65.6529 63.4514 66.2238C63.1805 66.5445 63.648 67.0066 63.9218 66.6825Z" fill="#606F8E"/>
<path d="M69.7538 82.3011C69.8105 82.3593 69.8624 82.4219 69.9092 82.4883L77.1855 82.3103L78.0343 80.7592L80.5427 81.7343L79.3068 84.6263C79.207 84.8599 79.034 85.0549 78.814 85.1818C78.5939 85.3088 78.3386 85.361 78.0863 85.3305L69.8655 84.3374C69.6716 84.5829 69.4075 84.7636 69.1084 84.8553C68.8093 84.9471 68.4894 84.9456 68.1912 84.8511C67.8929 84.7566 67.6305 84.5735 67.4389 84.3263C67.2472 84.079 67.1354 83.7792 67.1183 83.4668C67.1011 83.1545 67.1795 82.8443 67.343 82.5775C67.5065 82.3108 67.7473 82.1001 68.0334 81.9736C68.3195 81.847 68.6373 81.8106 68.9447 81.8691C69.252 81.9276 69.5342 82.0783 69.7538 82.3011Z" fill="#FFB7B7"/>
<path d="M93.4736 126.491H91.0811L89.9429 117.262L93.4739 117.263L93.4736 126.491Z" fill="#FFB7B7"/>
<path d="M94.0835 128.81L86.3691 128.81V128.712C86.3692 127.916 86.6856 127.152 87.2487 126.589C87.8118 126.026 88.5755 125.709 89.3718 125.709H89.372L94.0837 125.71L94.0835 128.81Z" fill="#2F2E41"/>
<path d="M71.7486 126.438L69.5486 125.498L72.127 116.564L75.3741 117.951L71.7486 126.438Z" fill="#FFB7B7"/>
<path d="M71.3991 128.81L64.3049 125.779L64.3433 125.689C64.6561 124.957 65.2471 124.379 65.9861 124.082C66.7251 123.786 67.5517 123.795 68.284 124.108L68.2842 124.108L72.6171 125.959L71.3991 128.81Z" fill="#2F2E41"/>
<path d="M81.8445 84.3002L81.6714 87.1038L86.7286 87.6449L92.0201 88.2112L90.4626 83.9541L81.8445 84.3002Z" fill="#FFB7B7"/>
<path d="M81.512 87.1398L79.5474 73.444L82.9525 72.328L83.9527 70.9564L88.8197 71.2444L89.5342 72.8449L92.1294 74.0712L91.7306 81.4781L92.0215 87.6742L81.512 87.1398Z" fill="#2F2E41"/>
<path d="M80.2754 83.4696L76.8118 82.0838L76.8265 82.0221C76.8414 81.96 78.3156 75.7997 78.5113 74.8097C78.7152 73.7784 79.4602 73.4932 79.4918 73.4816L79.5149 73.4731L80.8857 73.8903L81.4877 78.6204L80.2754 83.4696Z" fill="#2F2E41"/>
<path d="M73.5308 124.816L68.9202 123.87L76.2893 103.536L78.8113 96.6003C78.8113 96.6003 80.411 91.0393 81.1337 88.8873L81.5698 85.9998L91.8945 87.1426C91.8945 87.1426 94.7781 91.3775 93.9021 98.2801L94.2983 124.225L89.6877 124.461L85.8258 98.2948L79.0478 112.639C79.0478 112.639 76.9114 118.76 75.3829 120.087L73.5308 124.816Z" fill="#2F2E41"/>
<path d="M87.7539 88.1055C87.8351 88.1036 87.9163 88.108 87.9968 88.1189L92.8135 82.6621L92.2532 80.985L94.6737 79.8087L95.9541 82.6812C96.0575 82.9133 96.0829 83.1726 96.0264 83.4204C95.9699 83.6681 95.8346 83.8908 95.6407 84.055L89.3231 89.4081C89.3712 89.7173 89.3242 90.0337 89.1881 90.3154C89.052 90.5971 88.8334 90.8307 88.5613 90.9852C88.2893 91.1396 87.9766 91.2075 87.665 91.18C87.3534 91.1524 87.0575 91.0306 86.8168 90.8307C86.5761 90.6309 86.4019 90.3625 86.3175 90.0613C86.233 89.7601 86.2422 89.4403 86.344 89.1444C86.4457 88.8486 86.6351 88.5907 86.887 88.4051C87.1388 88.2195 87.4412 88.115 87.7539 88.1055Z" fill="#FFB7B7"/>
<path d="M92.4289 83.1932L90.4197 78.4669L91.2033 75.1748L92.0477 74.1081C92.1095 74.0816 92.1762 74.0683 92.2435 74.0689C92.3107 74.0696 92.3771 74.0841 92.4385 74.1117C92.7499 74.2371 93.0151 74.6212 93.2267 75.2535L95.1097 80.6171L92.4289 83.1932Z" fill="#2F2E41"/>
<path d="M82.0046 69.2051V65.6419C82.0046 64.3756 82.5077 63.1612 83.4031 62.2658C84.2985 61.3703 85.5129 60.8673 86.7793 60.8673C88.0456 60.8673 89.26 61.3703 90.1554 62.2658C91.0508 63.1612 91.5539 64.3756 91.5539 65.6419V69.2051C91.5537 69.3751 91.486 69.5381 91.3658 69.6584C91.2456 69.7786 91.0825 69.8462 90.9125 69.8464H82.646C82.476 69.8462 82.3129 69.7786 82.1927 69.6584C82.0725 69.5381 82.0048 69.3751 82.0046 69.2051Z" fill="#2F2E41"/>
<path d="M85.7979 69.7635C87.7313 69.7635 89.2985 68.1962 89.2985 66.2629C89.2985 64.3296 87.7313 62.7623 85.7979 62.7623C83.8646 62.7623 82.2974 64.3296 82.2974 66.2629C82.2974 68.1962 83.8646 69.7635 85.7979 69.7635Z" fill="#FFB7B7"/>
<path d="M80.875 65.927C80.8761 64.9256 81.2744 63.9656 81.9825 63.2575C82.6906 62.5494 83.6506 62.1512 84.6519 62.15H85.3646C86.366 62.1512 87.326 62.5494 88.034 63.2575C88.7421 63.9656 89.1404 64.9256 89.1415 65.927V65.9982H87.6355L87.1218 64.5599L87.0191 65.9982H86.2408L85.9816 65.2725L85.9298 65.9982H80.875L80.875 65.927Z" fill="#2F2E41"/>
<path d="M85.4537 70.2471C85.3829 70.1514 85.3407 70.0376 85.3318 69.9189C85.323 69.8003 85.3478 69.6815 85.4034 69.5763C86.1586 68.1399 87.216 65.4858 85.8125 63.8489L85.7116 63.7313H89.7861V69.8485L86.0847 70.5016C86.0473 70.5082 86.0093 70.5116 85.9712 70.5116C85.8702 70.5116 85.7706 70.4876 85.6806 70.4416C85.5907 70.3957 85.5129 70.329 85.4537 70.2471Z" fill="#2F2E41"/>
<path d="M37.9243 124.475L40.0864 125.248L44.0959 117.276L40.9048 116.135L37.9243 124.475Z" fill="#9F616A"/>
<path d="M36.6238 126.374L37.6252 123.572L41.8833 125.094C42.6024 125.352 43.1899 125.884 43.5169 126.575C43.8438 127.265 43.8835 128.057 43.6272 128.777L43.5956 128.865L36.6238 126.374Z" fill="#2F2E41"/>
<path d="M51.9842 126.614L54.2803 126.613L55.3728 117.757L51.9839 117.757L51.9842 126.614Z" fill="#9F616A"/>
<path d="M51.3984 125.864L55.9203 125.864H55.9205C56.2989 125.864 56.6736 125.938 57.0233 126.083C57.3729 126.228 57.6906 126.44 57.9582 126.708C58.2258 126.975 58.438 127.293 58.5829 127.643C58.7277 127.992 58.8022 128.367 58.8022 128.745V128.839L51.3986 128.839L51.3984 125.864Z" fill="#2F2E41"/>
<path d="M46.7515 70.0318L47.75 68.0586C47.75 68.0586 51.4701 68.9906 51.8083 71.1467L46.7515 70.0318Z" fill="#F1F1F1"/>
<path d="M42.6313 92.5935L45.3469 107.748L38.1362 120.499L42.4439 122.185L49.7483 109.824L50.6847 106.453L51.2465 124.058L55.1315 123.94L56.9126 107.501L54.0558 92.2189L42.6313 92.5935Z" fill="#2F2E41"/>
<path d="M47.786 96.1759C43.7966 96.1759 41.2636 95.4128 41.2068 95.4008L41.115 95.3812L43.193 85.747L43.2865 76.8603C43.2865 73.0944 45.7651 70.318 46.109 70.0617C46.1669 69.8331 46.274 69.6199 46.4229 69.437C46.5717 69.2541 46.7587 69.1059 46.9707 69.0027C47.7974 68.6276 48.8077 69.0777 48.8503 69.0971L51.8826 70.234L51.8969 70.2761C51.9334 70.3838 55.9274 83.4957 55.9274 83.4957C55.9274 83.4957 55.6857 94.952 55.6014 95.3273C55.6014 95.3273 50.0027 96.1759 47.786 96.1759Z" fill="#3F3D56"/>
<path d="M50.8516 67.4374C53.1151 67.4374 54.95 65.6025 54.95 63.339C54.95 61.0755 53.1151 59.2405 50.8516 59.2405C48.5881 59.2405 46.7532 61.0755 46.7532 63.339C46.7532 65.6025 48.5881 67.4374 50.8516 67.4374Z" fill="#9F616A"/>
<path opacity="0.2" d="M46.282 77.5871L53.4522 87.5912L54.511 82.9194L46.282 77.5871Z" fill="black"/>
<path d="M68.7618 84.394C68.5601 84.5535 68.3259 84.6669 68.0757 84.7261C67.8255 84.7853 67.5654 84.789 67.3136 84.7368C67.0618 84.6846 66.8246 84.5778 66.6185 84.424C66.4125 84.2702 66.2427 84.0731 66.121 83.8465L59.9495 84.8344L61.2865 81.8744L66.9421 81.3902C67.3363 81.2111 67.7824 81.1828 68.196 81.3106C68.6096 81.4385 68.9619 81.7136 69.1862 82.0839C69.4105 82.4541 69.4911 82.8938 69.4129 83.3196C69.3347 83.7453 69.103 84.1276 68.7618 84.394Z" fill="#9F616A"/>
<path d="M61.6042 81.706L63.8218 81.4885L64.4363 84.5818L61.6459 84.6312L61.6042 81.706Z" fill="#F1F1F1"/>
<path d="M63.4221 85.6597L52.5616 84.6926L47.0778 75.9714L47.0609 75.8943C46.9052 75.1819 47.0142 74.4371 47.3675 73.7992C47.7207 73.1612 48.2941 72.6736 48.9805 72.4274C49.6669 72.1812 50.4195 72.1932 51.0977 72.4613C51.7759 72.7293 52.3333 73.235 52.666 73.8839L55.8851 80.1631L62.3819 81.1452L63.4221 85.6597Z" fill="#3F3D56"/>
<path d="M47.3604 66.8973L50.7621 67.0194C50.9694 67.0268 51.5322 64.789 51.6059 64.3248C51.6641 64.0226 51.8303 63.7519 52.0735 63.5633C52.3168 63.3747 52.6203 63.281 52.9275 63.2999C53.1822 63.3239 53.8243 62.8482 54.4869 62.2849C55.7448 61.2154 55.6794 59.2068 54.2975 58.3031C54.2597 58.2784 54.2227 58.2559 54.1863 58.2355C53.3146 57.7475 52.2948 57.5837 51.2959 57.5712C50.3903 57.5599 49.4591 57.6738 48.6613 58.1025C47.2311 58.8709 46.4699 60.5501 46.403 62.1723C46.3362 63.7945 46.8562 65.3807 47.4464 66.8933" fill="#2F2E41"/>
<path d="M132.635 129H0.178129C0.130886 129 0.0855781 128.981 0.0521725 128.948C0.0187669 128.914 0 128.869 0 128.822C0 128.775 0.0187669 128.729 0.0521725 128.696C0.0855781 128.663 0.130886 128.644 0.178129 128.644H132.706C132.753 128.644 132.798 128.663 132.832 128.696C132.865 128.729 132.884 128.775 132.884 128.822C132.884 128.92 132.733 129 132.635 129Z" fill="#CBCBCB"/>
</svg>
