<svg width="84" height="87" viewBox="0 0 84 87" fill="none" xmlns="http://www.w3.org/2000/svg">
<path d="M74.7251 65.8509L74.7235 65.8899L76.6752 86.5289H62.4328L60.5866 73.853L59.7741 86.2039L45.1481 86.0413L46.7017 69.826L48.0229 62.3098V62.3082L48.2212 61.1771H74.3367L74.3708 61.5866L74.7251 65.8509Z" fill="#2F2E41"/>
<path d="M37.0862 77.8154C38.5946 78.0902 40.1674 76.3915 40.5993 74.0211C40.7884 72.9835 40.7273 71.9892 40.4725 71.1761L40.7038 69.8097L44.5851 51.4282C44.5851 51.4282 51.7324 37.1313 51.7322 34.6492C51.732 32.1672 49.6647 30.95 49.6647 30.95L46.8672 30.9762L38.0944 52.4027L36.5144 68.2362L36.2588 70.4085C35.7337 71.0795 35.3259 71.9883 35.137 73.0259C34.7051 75.3962 35.5778 77.5405 37.0862 77.8154Z" fill="#FFB6B6"/>
<path d="M65.5433 22.0931L62.9431 16.0802L54.4925 17.5428L53.9237 24.6172L65.5433 22.0931Z" fill="#FFB6B6"/>
<path opacity="0.1" d="M65.5433 22.0931L62.9431 16.0802L54.4925 17.5428L53.9237 24.6172L65.5433 22.0931Z" fill="black"/>
<path d="M83.907 34.6065C83.907 34.6065 77.8941 23.3932 76.7565 22.2556C76.2501 21.7492 75.4541 21.7422 74.7262 21.8898L66.3558 19.0054L63.5187 17.4113L63.3317 20.4441L54.0173 22.1159C54.0691 20.2664 54.33 19.5629 54.33 19.5629L50.9172 23.5557L44.2543 26.806L44.2579 26.8352C43.769 27.0059 43.3054 27.298 42.9542 27.781C41.6541 29.5687 38.0789 51.3452 38.0789 51.3452L45.7169 52.9703L46.7564 46.4471L47.5045 52.3202L48.0733 63.2897C48.0733 63.2897 58.474 72.2278 63.5119 68.9776C68.5497 65.7274 74.7251 65.8899 74.7251 65.8899L74.8792 60.8053C74.9889 60.63 75.0502 60.527 75.0502 60.527L74.8876 42.4909V37.6916C76.1257 39.4164 77.6197 40.8997 79.3567 41.5945C85.0446 43.8696 83.907 34.6065 83.907 34.6065Z" fill="#E6E6E6"/>
<path d="M57.8345 18.6008C62.1281 18.6008 65.6088 15.1201 65.6088 10.8265C65.6088 6.53285 62.1281 3.05219 57.8345 3.05219C53.5408 3.05219 50.0602 6.53285 50.0602 10.8265C50.0602 15.1201 53.5408 18.6008 57.8345 18.6008Z" fill="#FFB6B6"/>
<path d="M63.4117 13.0236C63.4117 13.0236 64.0877 10.6575 65.6088 10.8265C67.1298 10.9955 67.4678 9.64344 67.1298 8.96742C66.7918 8.29139 66.1158 4.91126 66.1158 4.91126C66.1158 4.91126 66.4538 2.54517 64.4257 2.20716C62.3977 1.86915 61.7216 1.53114 61.3836 0.855112C61.0456 0.179086 55.9754 -0.496939 54.2854 0.5171C52.5953 1.53114 51.2432 3.47671 50.0602 4.02498C48.8772 4.57325 47.8631 5.58729 48.5391 7.27735C49.2152 8.96742 50.1956 12.2728 50.1956 12.2728C50.1956 12.2728 51.9193 11.6715 52.2573 12.6856C52.5953 13.6996 51.2432 12.3475 52.9333 9.64344C54.6234 6.93934 54.6234 4.23524 57.3275 5.24928C60.0316 6.26331 63.0737 5.9253 62.7357 7.95338C62.3977 9.98145 63.4117 13.0236 63.4117 13.0236Z" fill="#2F2E41"/>
<path d="M62.9363 74.6551H3.89334C2.22361 74.6551 0.865234 73.2966 0.865234 71.627V40.2635C0.865234 38.5938 2.22361 37.2354 3.89334 37.2354H62.9363C64.606 37.2354 65.9644 38.5938 65.9644 40.2635V71.627C65.9644 73.2966 64.606 74.6551 62.9363 74.6551Z" fill="white"/>
<path d="M62.9363 74.6551H3.89334C2.22361 74.6551 0.865234 73.2966 0.865234 71.627V40.2635C0.865234 38.5938 2.22361 37.2354 3.89334 37.2354H62.9363C64.606 37.2354 65.9644 38.5938 65.9644 40.2635V71.627C65.9644 73.2966 64.606 74.6551 62.9363 74.6551ZM3.89334 37.741C2.5025 37.741 1.37091 38.8726 1.37091 40.2635V71.627C1.37091 73.0178 2.5025 74.1494 3.89334 74.1494H62.9363C64.3272 74.1494 65.4587 73.0178 65.4587 71.627V40.2635C65.4587 38.8726 64.3272 37.741 62.9363 37.741H3.89334Z" fill="#3F3D56"/>
<path d="M58.3794 41.0279C58.7983 41.0279 59.1379 40.6883 59.1379 40.2694C59.1379 39.8505 58.7983 39.5109 58.3794 39.5109C57.9604 39.5109 57.6208 39.8505 57.6208 40.2694C57.6208 40.6883 57.9604 41.0279 58.3794 41.0279Z" fill="#3F3D56"/>
<path d="M60.4019 41.0279C60.8209 41.0279 61.1604 40.6883 61.1604 40.2694C61.1604 39.8505 60.8209 39.5109 60.4019 39.5109C59.983 39.5109 59.6434 39.8505 59.6434 40.2694C59.6434 40.6883 59.983 41.0279 60.4019 41.0279Z" fill="#3F3D56"/>
<path d="M62.4246 41.0279C62.8436 41.0279 63.1832 40.6883 63.1832 40.2694C63.1832 39.8505 62.8436 39.5109 62.4246 39.5109C62.0057 39.5109 61.6661 39.8505 61.6661 40.2694C61.6661 40.6883 62.0057 41.0279 62.4246 41.0279Z" fill="#3F3D56"/>
<path d="M5.16343 52.532C4.9543 52.532 4.78418 52.7021 4.78418 52.9112C4.78418 53.0132 4.82356 53.1075 4.89504 53.1772C4.96714 53.251 5.06158 53.2905 5.16343 53.2905H61.919C62.1282 53.2905 62.2983 53.1204 62.2983 52.9112C62.2983 52.8093 62.2589 52.7149 62.1874 52.6453C62.1153 52.5715 62.0209 52.532 61.919 52.532H5.16343Z" fill="#E6E6E6"/>
<path d="M54.8397 52.4055V53.4169H5.16351C5.02445 53.4169 4.89804 53.3612 4.80702 53.2677C4.71345 53.1767 4.65784 53.0502 4.65784 52.9112C4.65784 52.6331 4.88539 52.4055 5.16351 52.4055H54.8397Z" fill="#606F8E"/>
<path d="M61.2869 50.5093H56.2302C55.6726 50.5093 55.2189 50.0557 55.2189 49.4979C55.2189 48.9401 55.6726 48.4866 56.2302 48.4866H61.2869C61.8446 48.4866 62.2983 48.9401 62.2983 49.4979C62.2983 50.0557 61.8446 50.5093 61.2869 50.5093Z" fill="#E6E6E6"/>
<path d="M28.1653 45.1997H5.54259C4.98495 45.1997 4.53125 44.7461 4.53125 44.1883C4.53125 43.6306 4.98495 43.177 5.54259 43.177H28.1653C28.723 43.177 29.1767 43.6306 29.1767 44.1883C29.1767 44.7461 28.723 45.1997 28.1653 45.1997Z" fill="#E6E6E6"/>
<path d="M5.16343 63.9095C4.9543 63.9095 4.78418 64.0797 4.78418 64.2888C4.78418 64.3908 4.82356 64.4851 4.89504 64.5547C4.96714 64.6285 5.06158 64.6681 5.16343 64.6681H61.919C62.1282 64.6681 62.2983 64.4979 62.2983 64.2888C62.2983 64.1868 62.2589 64.0925 62.1874 64.0229C62.1153 63.9491 62.0209 63.9095 61.919 63.9095H5.16343Z" fill="#E6E6E6"/>
<path d="M35.3713 63.7831V64.7945H5.16351C5.02445 64.7945 4.89804 64.7389 4.80702 64.6453C4.71345 64.5543 4.65784 64.4279 4.65784 64.2888C4.65784 64.0107 4.88539 63.7831 5.16351 63.7831H35.3713Z" fill="#606F8E"/>
<path d="M61.2869 61.8869H56.2302C55.6726 61.8869 55.2189 61.4333 55.2189 60.8755C55.2189 60.3178 55.6726 59.8642 56.2302 59.8642H61.2869C61.8446 59.8642 62.2983 60.3178 62.2983 60.8755C62.2983 61.4333 61.8446 61.8869 61.2869 61.8869Z" fill="#E6E6E6"/>
<path d="M70.1395 19.1992C74.5129 19.1992 78.0581 15.7286 78.0581 11.4474C78.0581 7.16625 74.5129 3.69568 70.1395 3.69568C65.7662 3.69568 62.2209 7.16625 62.2209 11.4474C62.2209 15.7286 65.7662 19.1992 70.1395 19.1992Z" fill="#606F8E"/>
<path d="M72.8272 7.53741C71.773 9.45702 70.7188 11.3766 69.6646 13.2963C68.9927 12.1091 68.3245 10.9199 67.6509 9.73366C67.4183 9.32399 66.7856 9.69247 67.0188 10.1032C67.7996 11.4782 68.5723 12.8579 69.353 14.233C69.4865 14.4681 69.8531 14.4736 69.9852 14.233C71.1432 12.1243 72.3013 10.0156 73.4593 7.90691C73.6863 7.49371 73.0543 7.12389 72.8272 7.53741Z" fill="white"/>
<path d="M81.0707 31.8801L73.1813 28.1061C73.1813 28.1061 72.8644 25.5801 71.3849 24.6791C71.1333 24.079 70.8439 23.4198 70.5811 22.8974C69.931 21.6056 70.9061 19.168 70.0935 19.168C69.281 19.168 68.0798 21.7317 68.1434 22.4182C68.1922 22.9452 68.6278 23.8653 68.7178 24.6707C67.7269 25.0444 66.9276 25.685 66.4021 26.1949C65.9472 26.6363 65.7783 27.2947 65.956 27.9031C66.4711 29.6658 67.7585 33.3064 69.606 33.3064C72.0437 33.3064 72.6937 32.8189 72.6937 32.8189C72.6937 32.8189 77.7316 39.1568 81.4693 39.6444C85.2071 40.1319 81.0707 31.8801 81.0707 31.8801Z" fill="#FFB6B6"/>
</svg>
