<?xml version="1.0" encoding="utf-8"?>
<!-- Generator: Adobe Illustrator 25.0.0, SVG Export Plug-In . SVG Version: 6.00 Build 0)  -->
<svg version="1.1" id="Layer_1" xmlns="http://www.w3.org/2000/svg" xmlns:xlink="http://www.w3.org/1999/xlink" x="0px" y="0px"
	 viewBox="0 0 203 160" style="enable-background:new 0 0 203 160;" xml:space="preserve">
<style type="text/css">
	.st0{fill:#333333;}
	.st1{fill:#3667A6;}
	.st2{fill:#214177;}
	.st3{fill:#BDD8F1;}
</style>
<path class="st0" d="M-313.3-158.2h20.6V-90c0,13.8-8.1,24.2-17.7,30.9l-10.2-10.4c4.5-5.8,7.2-11.8,7.2-20V-158.2z"/>
<path class="st0" d="M-263.1-158.2v48.9c0,11,4.1,14.5,9,14.5s9.1-3.5,9.1-14.5v-48.9h20.8v48.7c0,22.6-13.5,30.6-29.9,30.6
	s-29.8-8-29.8-30.7v-48.7H-263.1z"/>
<path class="st0" d="M-212-100.5c7.1,3.5,13.6,5.5,18.9,5.5c4.8,0,7.8-2.8,7.8-7.2c0-4.2-3.2-5.6-7.1-7c-7.8-2.9-24.6-5.2-24.6-25.5
	c0-13.1,7.6-24.7,27.9-24.7c7.1,0,14.9,2.1,21.4,4.8l-3.3,16.4c-7-3.3-13.6-5.3-18-5.3c-4.2,0-7,2.3-7,6.5c0,3.6,2.3,5.3,5.8,6.6
	c6.1,2.2,25.9,5.4,25.9,25.9c0,14.6-8.7,25.6-28.6,25.6c-7.1,0-15.9-2.2-22.4-4.9L-212-100.5z"/>
<path class="st0" d="M-161.9-158.2h55l-0.9,15.9h-16.7v62.1h-20.7v-62.1h-17.6L-161.9-158.2z"/>
<path class="st0" d="M-101.1-158.2h20.8v78h-20.8V-158.2z"/>
<path class="st0" d="M-55.9-119.2l-19.4-39h23.5l7.4,20l2.3,7.4l2.3-7.4l7.4-20h22.6l-19.4,39l19.4,39h-23.5l-7.4-20l-2.3-7.4
	l-2.3,7.4l-7.4,20h-22.6L-55.9-119.2z"/>
<path class="st1" d="M118.6,59.5c0-1.5-1.2-2.7-2.7-2.7c-0.3,0-0.7,0.1-1,0.2L87.8,68.1c-1,0.4-1.7,1.4-1.7,2.5v82.9h32.5V59.5
	L118.6,59.5z"/>
<path class="st2" d="M78.7,153.4V95.2c0-1.5-1.2-2.7-2.7-2.7c-0.3,0-0.7,0.1-1,0.2l-27.1,11.1c-0.8,0.3-1.3,0.9-1.6,1.7
	c-0.1,0.3-0.1,0.6-0.1,0.8V143l0,0l0,0l9.7,9.7c0.5,0.5,1.2,0.8,1.9,0.8h21L78.7,153.4z"/>
<path class="st3" d="M126.1,153.3v0.2h20.8c0.7,0,1.4-0.3,1.9-0.8l9.9-9.9v-129c0-1.5-1.2-2.7-2.7-2.7c-0.4,0-0.7,0.1-1,0.2
	l-27.1,11.1c-1,0.4-1.7,1.4-1.7,2.5v8.6l0,0V153.3z"/>
<path class="st1" d="M126.1,33.6l-21.9-21.9c-1.1-1.1-2.8-1.1-3.8,0L9.6,102.5c-1.1,1.1-1.1,2.8,0,3.8l29.2,29.2v-22.1l-7.1-7.1
	c-1.1-1.1-1.1-2.8,0-3.8c0,0,0,0,0,0l68.8-68.8c1.1-1.1,2.8-1.1,3.8,0l21.9,21.9V33.6z"/>
<path class="st1" d="M195.2,102.6l-29-28.9v22.1l6.9,6.9c1.1,1.1,1.1,2.8,0,3.8l-14.4,14.4l-32.5,32.5v0.2h20.8
	c0.7,0,1.4-0.3,1.9-0.8l9.9-9.9l36.5-36.5C196.2,105.3,196.2,103.6,195.2,102.6z"/>
</svg>
