<svg id="Layer_1" data-name="Layer 1" xmlns="http://www.w3.org/2000/svg" viewBox="0 0 719.43 172.72"><defs><style>.cls-1{fill:#2068aa;}.cls-2{fill:#0b1340;}.cls-3{fill:#b5d8f3;}</style></defs><path class="cls-1" d="M627.66,60.76a2.94,2.94,0,0,0-3-2.92,2.76,2.76,0,0,0-1.09.22l-29.41,12a2.94,2.94,0,0,0-1.83,2.72v90h35.31v-102Z"/><path class="cls-2" d="M584.35,162.71V99.52a3,3,0,0,0-3-2.94,3.17,3.17,0,0,0-1.1.22l-29.42,12a2.94,2.94,0,0,0-1.7,1.88,3.14,3.14,0,0,0-.14.91v39.77h0L559.6,162a2.94,2.94,0,0,0,2.08.86h22.79Z"/><path class="cls-3" d="M635.8,162.58v.21h22.53a3,3,0,0,0,2.1-.87l10.68-10.69v-140a3,3,0,0,0-2.94-3,3,3,0,0,0-1.12.22l-29.41,12a2.93,2.93,0,0,0-1.84,2.73v9.35h0Z"/><path class="cls-1" d="M635.8,32.62,612.09,8.91a3,3,0,0,0-4.17,0l-98.58,98.58a3,3,0,0,0,0,4.18L541,143.31v-24l-7.67-7.67a3,3,0,0,1,0-4.16l0,0,74.61-74.61a3,3,0,0,1,4.17,0L635.8,56.59Z"/><path class="cls-1" d="M710.68,107.49,679.21,76.07v24l7.46,7.45a3,3,0,0,1,0,4.18l-15.6,15.59-35.31,35.32v.21h22.53a2.94,2.94,0,0,0,2.09-.87l10.69-10.69,39.57-39.56A3,3,0,0,0,710.68,107.49Z"/><path class="cls-2" d="M43.16,164.67A49.06,49.06,0,0,1,23,160.57a38.58,38.58,0,0,1-14.56-11,1,1,0,0,1,0-1.27L21,133.15a1,1,0,0,1,1.56,0,33.7,33.7,0,0,0,8.67,7.92,20.09,20.09,0,0,0,10.66,3q15.31,0,15.31-17.93V75.67a1,1,0,0,0-1-1h-36a1,1,0,0,1-1-1V55.57a1,1,0,0,1,1-1H81.13a1,1,0,0,1,1,1v69.21q0,20.1-9.9,30T43.16,164.67Z"/><path class="cls-2" d="M165.85,79.62a1,1,0,0,0-1,1v40.14a28.43,28.43,0,0,1-2.47,12.6,16.54,16.54,0,0,1-6.8,7.42,20.1,20.1,0,0,1-9.9,2.4q-8,0-12.45-4.87t-4.41-15.24V80.62a1,1,0,0,0-1-1H105.7a1,1,0,0,0-1,1v46q0,12.84,4.49,21.11A28.49,28.49,0,0,0,121.79,160a41.09,41.09,0,0,0,18.48,4,36.47,36.47,0,0,0,17.7-4.41,27.76,27.76,0,0,0,6.4-4.74,1,1,0,0,1,1.72.69v6.22a1,1,0,0,0,1,1H188a1,1,0,0,0,1-1V80.62a1,1,0,0,0-1-1Z"/><path class="cls-2" d="M239.38,164.05a81.24,81.24,0,0,1-20.49-2.55,52.52,52.52,0,0,1-14.81-5.94,1,1,0,0,1-.36-1.27l7.21-15.52a1,1,0,0,1,1.41-.44,54.2,54.2,0,0,0,12.59,5.23,55.32,55.32,0,0,0,15.38,2.25q8.35,0,11.83-2a6.18,6.18,0,0,0,3.48-5.57,4.73,4.73,0,0,0-2.71-4.41,23.75,23.75,0,0,0-7.19-2.24c-3-.52-6.26-1-9.82-1.55s-7.14-1.21-10.74-2.08a36.35,36.35,0,0,1-9.9-4,20.16,20.16,0,0,1-7.19-7.11q-2.7-4.48-2.7-11.6a22.41,22.41,0,0,1,4.56-13.92q4.56-6,13.22-9.5t20.72-3.48a83.74,83.74,0,0,1,17.32,1.85,48.67,48.67,0,0,1,13.9,5,1,1,0,0,1,.4,1.3l-7.2,15.35a1,1,0,0,1-1.39.44A40.4,40.4,0,0,0,255.7,98a56,56,0,0,0-11.83-1.32q-8,0-11.75,2.17c-2.48,1.44-3.72,3.3-3.72,5.56a5,5,0,0,0,2.71,4.64,24.77,24.77,0,0,0,7.19,2.48q4.48.93,9.82,1.62a88.56,88.56,0,0,1,10.75,2.09,39,39,0,0,1,9.82,3.94,20.72,20.72,0,0,1,7.19,7q2.78,4.41,2.78,11.52A21.62,21.62,0,0,1,274,151.29q-4.63,6-13.38,9.36T239.38,164.05Z"/><path class="cls-2" d="M341.12,143a1,1,0,0,0-1.46-.49,15.81,15.81,0,0,1-8.74,2.39,10.06,10.06,0,0,1-7.57-2.86c-1.86-1.91-2.79-4.61-2.79-8.12V101a1,1,0,0,1,1-1h18.72a1,1,0,0,0,1-1V82.48a1,1,0,0,0-1-1H321.56a1,1,0,0,1-1-1V62.22a1,1,0,0,0-1-1H297.44a1,1,0,0,0-1,1V80.48a1,1,0,0,1-1,1H284.61a1,1,0,0,0-1,1V99a1,1,0,0,0,1,1h10.83a1,1,0,0,1,1,1v33.18q0,14.83,8.2,22.34t22.88,7.5a43.9,43.9,0,0,0,10.75-1.31,27.11,27.11,0,0,0,8.23-3.5,1,1,0,0,0,.37-1.19Z"/><path class="cls-2" d="M360.77,161.81V80.62a1,1,0,0,1,1-1h22.12a1,1,0,0,1,1,1v81.19a1,1,0,0,1-1,1H361.77A1,1,0,0,1,360.77,161.81Z"/><path class="cls-2" d="M486.35,161.21l-30.51-40.3a1,1,0,0,1,0-1.21L485.1,81.23a1,1,0,0,0-.79-1.61H461.16a1,1,0,0,0-.81.41l-17,22.8a1,1,0,0,1-1.61,0L425.23,80a1,1,0,0,0-.8-.42H399.87a1,1,0,0,0-.8,1.6l29.27,39a1,1,0,0,1,0,1.2L398,161.21a1,1,0,0,0,.79,1.6h23.77a1,1,0,0,0,.8-.4l17.77-24a1,1,0,0,1,1.62,0l17.12,24a1,1,0,0,0,.81.41h24.85A1,1,0,0,0,486.35,161.21Z"/><path class="cls-3" d="M372.83,68A15.3,15.3,0,0,1,362,64.16,13.1,13.1,0,0,1,362,45a15.3,15.3,0,0,1,10.83-3.87,15.89,15.89,0,0,1,10.82,3.63,11.88,11.88,0,0,1,4.18,9.36,13.26,13.26,0,0,1-4.1,10Q379.62,68,372.83,68Z"/></svg>